<svg width="32" height="32" viewBox="0 0 32 32" fill="none" xmlns="http://www.w3.org/2000/svg">
<path d="M32 16C32 7.16344 24.8366 0 16 0C7.16344 0 0 7.16344 0 16C0 24.8366 7.16344 32 16 32C24.8366 32 32 24.8366 32 16Z" fill="white"/>
<path d="M16.8787 17.1333C16.8787 17.1333 16.9098 16.9148 16.128 16.9148H3.40576L9.12645 19.7436H10.7054C10.8773 19.7436 11.1744 19.697 10.8773 19.9155C10.5802 20.134 7.11045 22.7132 7.11045 22.7132H10.4787L14.3306 19.6906L17.0506 17.5557H17.5507C17.5507 17.5557 17.5507 17.1187 16.8787 17.1333ZM16.5678 17.2119C16.4782 17.1946 16.4115 17.1434 16.4206 17.0986C16.4288 17.0529 16.5093 17.03 16.6007 17.0474C16.6903 17.0657 16.7571 17.1169 16.7479 17.1617C16.7397 17.2074 16.6592 17.2302 16.5678 17.2119Z" fill="#3E73CE"/>
<path d="M16.8787 17.1333C16.8787 17.1333 16.9098 16.9148 16.1281 16.9148H14.3306V19.6906L17.0506 17.5557H17.5507C17.5507 17.5557 17.5507 17.1187 16.8787 17.1333ZM16.5678 17.2119C16.4782 17.1946 16.4115 17.1434 16.4206 17.0986C16.4289 17.0529 16.5093 17.03 16.6007 17.0474C16.6903 17.0657 16.7571 17.1169 16.7479 17.1617C16.7397 17.2074 16.6593 17.2302 16.5678 17.2119Z" fill="#CECECE"/>
<path d="M12.1755 9.28869H16.2066L20.5851 13.9241C20.5851 13.9241 21.9593 11.5232 22.4274 10.5568C22.8955 9.59041 21.9593 9.53007 20.9783 9.53007C20.9783 9.54561 20.9783 9.28869 20.9783 9.28869H25.0852V9.48527C25.0852 9.48527 24.0585 9.48527 23.7111 9.99818C23.3636 10.5111 20.2532 16.1888 20.2532 16.1888H19.7248L14.4704 10.5266C14.4704 10.5266 12.9005 13.3801 12.3264 14.4974C11.7522 15.6146 12.4023 15.8112 13.6548 15.7957C13.6704 15.8112 13.6548 16.0672 13.6548 16.0672L9.50305 16.0517V15.7801C10.7565 15.7646 10.9376 15.3879 11.5264 14.3154C12.1152 13.2439 13.2626 11.1447 13.7307 10.2688C14.1988 9.39292 12.266 9.54378 12.2057 9.51361L12.1755 9.28687V9.28869Z" fill="#3E73CE" stroke="#3E73CE" stroke-miterlimit="10"/>
<path d="M26.9787 19.6531C26.7218 18.8229 25.0313 13.7495 25.0313 13.7495H24.5174L17.1501 19.7737C17.1501 19.7737 16.4553 20.4083 15.5565 20.4229V20.6871H19.3764L19.3691 20.4311C18.1467 20.4311 17.8066 20.1513 18.207 19.7893C18.6066 19.4263 19.6187 18.5212 19.6187 18.5212L23.8838 18.5358C23.8838 18.5358 24.0191 18.9893 24.1179 19.3961C24.3218 20.2272 24.1627 20.4229 22.623 20.4311V20.6871H28.5942V20.4229C27.6809 20.4229 27.2356 20.4832 26.9787 19.6531ZM20.1316 18.1509L22.9705 15.6823L23.7101 18.1509H20.1316Z" fill="#3E73CE" stroke="#3E73CE" stroke-miterlimit="10"/>
</svg>
