<svg width="342" height="342" viewBox="0 0 342 342" fill="none" xmlns="http://www.w3.org/2000/svg">
<rect width="342" height="342" rx="171" fill="white"/>
<path d="M50.786 81.2136C43.2363 91.5004 45.1872 101.806 51.227 110.828C53.1395 113.68 55.1001 116.182 56.4998 117.649C57.5351 118.732 57.2427 119.139 56.0827 117.984C55.704 117.61 50.4312 114.308 45.9206 103.216C44.6455 100.081 43.7827 99.8218 42.1625 107.731C40.6862 114.926 42.0619 118.152 43.8019 121.972C46.0932 126.991 51.3995 133.002 54.6255 135.73C55.7664 136.698 55.287 137.182 54.1653 136.204C53.1395 135.308 49.2952 133.146 42.6754 122.433C41.8462 121.09 41.3429 121.388 40.9306 123.223C38.8934 132.278 40.619 136.837 42.3111 140.106C45.2112 145.705 50.3689 149.65 52.0083 151.371C52.8711 152.281 52.502 152.588 51.5194 151.831C51.0017 151.433 47.3059 149.036 44.0895 144.717C41.2949 140.959 40.528 139.373 41.5634 147.55C43.6964 164.394 64.7349 191.928 112.152 202.292C123.095 204.683 149.752 207.598 150.749 228.469C151.099 235.836 149.411 242.791 137.945 249.071C131.541 252.364 125.784 254.799 122.108 256.323C116.926 258.476 120.258 259.731 123.723 261.093C129.883 263.514 130.621 263.058 133.54 261.783C142.255 257.977 148.256 253.658 148.735 253.308C149.119 253.03 149.22 253.169 148.836 253.481C145.917 255.863 141.723 258.634 133.876 262.301C131.278 263.514 134.71 264.204 138.406 264.693C142.969 265.297 142.677 265.182 146.468 262.766C153.117 258.533 154.622 257.263 155.077 256.879C155.533 256.496 155.696 256.63 155.307 257.023C154.77 257.574 151.981 259.928 147.139 263.029C144.695 264.597 143.803 264.995 147.364 264.928C159.238 264.702 163.619 260.379 178.867 248.572C209.641 224.749 236.83 225.731 250.405 222.611C265.202 219.212 284.726 211.505 291.772 195.202C293.066 192.211 292.525 192.024 290.962 193.16C288.896 194.66 285.402 196.458 283.043 196.846C282.55 196.928 282.353 196.539 282.756 196.386C285.56 195.298 296.125 192.829 297.078 177.946C297.088 177.773 297.045 177.495 296.877 177.394C296.709 177.289 296.335 177.749 296.144 177.979C293.201 181.507 289.39 182.744 286.039 183.698C285.009 183.99 284.812 183.477 285.905 183.146C286.653 182.921 301.992 180.16 300.352 160.215C300.266 159.155 299.7 159.203 299.518 159.438C295.779 164.231 291.657 166.412 290.281 166.758C289.922 166.849 289.874 166.604 290.171 166.441C292.784 165.003 306.9 157.362 300.213 140.744C299.475 138.908 298.521 138.582 297.582 139.804C274.482 169.821 247.854 179.364 205.964 177.572C202.144 177.572 202.796 180.759 206.305 180.759C212.105 180.759 228.652 178.113 227.832 193.486C232.712 195.772 233.378 202.675 231.94 203.202C229.774 203.356 218.643 193.194 205.821 203.404C201.478 206.86 200.351 210.56 195.385 210.479C185.075 210.311 187.884 199.171 187.658 192.796C187.361 184.393 183.584 173.914 170.306 162.559C143.774 139.881 106.802 138.04 80.4095 117.294C60.3537 99.3712 58.839 85.2545 57.1517 79.2339C55.5938 73.6687 51.5865 80.1207 50.786 81.2136V81.2136Z" fill="#29549E"/>
</svg>
