<svg height="512" viewBox="0 0 64 64" width="512" xmlns="http://www.w3.org/2000/svg"><g id="Flat"><g id="Color"><path d="m52 24h4v5h-4z" fill="#d0d8da"/><path d="m45 13.38v33.24a49.909 49.909 0 0 1 -25 6.38 52.46 52.46 0 0 1 -17-2.76v-40.48a52.46 52.46 0 0 1 17-2.76 49.909 49.909 0 0 1 25 6.38z" fill="#e59730"/><path d="m44.95 37.58a3.623 3.623 0 0 1 -4.95-3.39v-23.29a47.954 47.954 0 0 0 -8-2.57v29.23a3.984 3.984 0 0 1 -3.52 3.97 77.727 77.727 0 0 1 -8.48.47h-.09a8.911 8.911 0 0 1 -8.91-8.91v-25.34a49.744 49.744 0 0 0 -8 2.009v40.477a52.572 52.572 0 0 0 17 2.764 49.909 49.909 0 0 0 25-6.38v-9.06c-.02.01-.03.02-.05.02z" fill="#b27525"/><path d="m45 18.44v23.12a67.6 67.6 0 0 1 -25 4.44 74.273 74.273 0 0 1 -17-1.91v-28.18a74.273 74.273 0 0 1 17-1.91 67.6 67.6 0 0 1 25 4.44z" fill="#f9e109"/><path d="m44.95 37.58a3.623 3.623 0 0 1 -4.95-3.39v-17.48a62.581 62.581 0 0 0 -8-1.78v22.63a3.984 3.984 0 0 1 -3.52 3.97 77.727 77.727 0 0 1 -8.48.47h-.09a8.911 8.911 0 0 1 -8.91-8.91v-18.57a68.887 68.887 0 0 0 -8 1.4v28.158a73.818 73.818 0 0 0 17 1.922 67.6 67.6 0 0 0 25-4.44v-4c-.02.01-.03.02-.05.02z" fill="#fcbc04"/><path d="m45 24.94v10.12a148.165 148.165 0 0 1 -25 1.94 161.96 161.96 0 0 1 -17-.85v-12.3a161.96 161.96 0 0 1 17-.85 148.165 148.165 0 0 1 25 1.94z" fill="#e59730"/><path d="m32 23.41v13.18c2.95-.2 5.75-.48 8.36-.82a3.6 3.6 0 0 1 -.36-1.58v-10c-2.51-.33-5.19-.59-8-.78z" fill="#b27525"/><path d="m3 23.843v12.319c2.78.289 5.734.51 8.82.648a8.731 8.731 0 0 1 -.82-3.72v-9.86c-2.792.141-5.466.35-8 .613z" fill="#b27525"/><path d="m34 7v46l4-1v-44z" fill="#d0d8da"/><path d="m7 53v-46l-4 1v44z" fill="#d0d8da"/><path d="m34 7v46l4-1v-4a2.006 2.006 0 0 1 -2-2v-38.5z" fill="#93999a"/><path d="m5 7.5-2 .5v44l4 1v-4a2.006 2.006 0 0 1 -2-2z" fill="#93999a"/><g fill="#e9f1f2"><path d="m45 27h4v6h-4z"/><path d="m49 28v4h6v4h4v-4a4 4 0 0 0 -4-4z"/><path d="m9 49a2 2 0 0 1 2 2v7a0 0 0 0 1 0 0h-4a0 0 0 0 1 0 0v-7a2 2 0 0 1 2-2z"/><path d="m32 49a2 2 0 0 1 2 2v7a0 0 0 0 1 0 0h-4a0 0 0 0 1 0 0v-7a2 2 0 0 1 2-2z"/></g><path d="m53 43v4.419a9.751 9.751 0 0 0 .5 3.081 9.751 9.751 0 0 1 .5 3.081v3.419h6v-3.419a9.751 9.751 0 0 1 .5-3.081 9.751 9.751 0 0 0 .5-3.081v-4.419z" fill="#f7f754"/><path d="m53 47.419a9.751 9.751 0 0 0 .5 3.081 9.746 9.746 0 0 1 .5 3.081v3.419h6v-3.419a9.746 9.746 0 0 1 .5-3.081 9.751 9.751 0 0 0 .5-3.081v-.419h-8z" fill="#fcbc04"/><path d="m57.59 33.41a1.955 1.955 0 0 1 -.59-1.41 2.006 2.006 0 0 0 -2-2h-2a2.006 2.006 0 0 1 -2-2h-2v4h6v4h4v-2a1.955 1.955 0 0 1 -1.41-.59z" fill="#d0d8da"/><path d="m49 32v1h-4v-6h2v3a2.006 2.006 0 0 0 2 2z" fill="#d0d8da"/><path d="m60 53.58v3.42h-6v-3.42a9.741 9.741 0 0 0 -.5-3.08 9.741 9.741 0 0 1 -.5-3.08v-4.42h2v4.42a9.741 9.741 0 0 0 .5 3.08c0 .01.01.02.01.03a4.31 4.31 0 0 0 4.06 3.05z" fill="#f9e109"/><path d="m60 53.58v3.42h-6v-3.42a9.741 9.741 0 0 0 -.5-3.08 9.741 9.741 0 0 1 -.5-3.08v-.42h2v.42a9.741 9.741 0 0 0 .5 3.08c0 .01.01.02.01.03a4.31 4.31 0 0 0 4.06 3.05z" fill="#e59730"/><path d="m11 55v3h-4v-7a2.006 2.006 0 0 1 2-2v4a2.006 2.006 0 0 0 2 2z" fill="#d0d8da"/><path d="m34 55v3h-4v-7a2.006 2.006 0 0 1 2-2v4a2.006 2.006 0 0 0 2 2z" fill="#d0d8da"/><path d="m3 57h58v4h-58z" fill="#fcbc04"/><path d="m61 59v2h-58v-4h34a2.006 2.006 0 0 0 2 2z" fill="#e59730"/><path d="m57 25h-6a1 1 0 0 1 0-2h6a1 1 0 0 1 0 2z" fill="#e9f1f2"/></g></g></svg>