<svg width="240" height="240" viewBox="0 0 240 240" fill="none" xmlns="http://www.w3.org/2000/svg">
<path d="M215.416 174.821V186.819C215.416 190.861 213.957 194.762 211.334 197.837C206.892 203.045 202.013 207.867 196.752 212.248C194.011 214.532 189.849 212.587 189.849 209.02C189.849 194.585 178.147 182.883 163.711 182.883H54.6792C27.5709 182.883 4.62094 162.825 1.05141 135.952C0.357656 130.733 0 125.408 0 120C0 53.8071 53.5936 0.131962 119.755 0.000243117C185.789 -0.131944 239.833 53.6576 240 119.691C240.032 132.605 238.025 145.045 234.281 156.708C233.888 157.933 232.754 158.769 231.467 158.769C222.602 158.769 215.416 165.956 215.416 174.821Z" fill="#60C8DD"/>
<path d="M220.382 120C220.382 175.44 175.44 220.382 120 220.382C64.5605 220.382 19.6177 175.44 19.6177 120C19.6177 64.5605 64.5605 19.6177 120 19.6177C175.44 19.6177 220.382 64.5605 220.382 120Z" fill="#7CD2E3"/>
<path d="M196.875 67.9688V212.146C191.178 216.905 185.032 221.145 178.511 224.793C176.239 226.065 173.438 224.401 173.438 221.797V67.9688C173.438 65.3798 175.536 63.2812 178.125 63.2812H192.188C194.776 63.2812 196.875 65.3798 196.875 67.9688Z" fill="#3D4EC6"/>
<path d="M42.1875 187.5H28.125C25.5361 187.5 23.4375 185.401 23.4375 182.813V65.625C23.4375 63.0361 25.5361 60.9375 28.125 60.9375H42.1875C44.7764 60.9375 46.875 63.0361 46.875 65.625V182.813C46.875 185.401 44.7764 187.5 42.1875 187.5ZM234.375 156.415V121.875C234.375 119.286 232.277 117.188 229.688 117.188H215.625C213.036 117.188 210.938 119.286 210.938 121.875V198.3C221.364 186.201 229.418 171.999 234.375 156.415ZM121.875 145.313V28.125C121.875 25.5361 119.776 23.4375 117.188 23.4375H103.125C100.536 23.4375 98.4375 25.5361 98.4375 28.125V145.313C98.4375 147.901 100.536 150 103.125 150H117.188C119.776 150 121.875 147.901 121.875 145.313Z" fill="#FFB52D"/>
<path d="M117.188 70.3125H112.51C109.921 70.3125 107.823 68.2139 107.823 65.625V28.125C107.823 25.5361 109.921 23.4375 112.51 23.4375H117.188C119.777 23.4375 121.875 25.5361 121.875 28.125V65.625C121.875 68.2139 119.777 70.3125 117.188 70.3125ZM234.375 148.793V121.875C234.375 119.286 232.277 117.188 229.688 117.188H225.01C222.421 117.188 220.323 119.286 220.323 121.875V148.793C220.323 151.382 222.421 153.481 225.01 153.481H229.688C232.277 153.481 234.375 151.382 234.375 148.793ZM46.8752 96.6521V65.625C46.8752 63.0361 44.7766 60.9375 42.1877 60.9375H37.51C34.9211 60.9375 32.8225 63.0361 32.8225 65.625V96.6521C32.8225 99.241 34.9211 101.34 37.51 101.34H42.1877C44.7766 101.34 46.8752 99.241 46.8752 96.6521Z" fill="#FFC14F"/>
<path d="M154.688 187.5H140.625C138.036 187.5 135.938 185.401 135.938 182.813V76.875C135.938 74.2861 138.036 72.1875 140.625 72.1875H154.688C157.276 72.1875 159.375 74.2861 159.375 76.875V182.813C159.375 185.401 157.276 187.5 154.688 187.5ZM84.375 164.063V46.875C84.375 44.2861 82.2764 42.1875 79.6875 42.1875H65.625C63.0361 42.1875 60.9375 44.2861 60.9375 46.875V164.063C60.9375 166.651 63.0361 168.75 65.625 168.75H79.6875C82.2764 168.75 84.375 166.651 84.375 164.063ZM192.188 198.3H187.51C184.921 198.3 182.822 196.201 182.822 193.612V67.9688C182.822 65.3799 184.921 63.2813 187.51 63.2813H192.188C194.776 63.2813 196.875 65.3799 196.875 67.9688V193.612C196.875 196.201 194.776 198.3 192.188 198.3Z" fill="#5766CE"/>
<path d="M79.6877 72.1875H75.01C72.4211 72.1875 70.3225 70.0889 70.3225 67.5V46.875C70.3225 44.2861 72.4211 42.1875 75.01 42.1875H79.6877C82.2766 42.1875 84.3752 44.2861 84.3752 46.875V67.5C84.3752 70.0889 82.2766 72.1875 79.6877 72.1875ZM159.375 97.5V76.875C159.375 74.2861 157.277 72.1875 154.688 72.1875H150.01C147.421 72.1875 145.323 74.2861 145.323 76.875V97.5C145.323 100.089 147.421 102.188 150.01 102.188H154.688C157.277 102.188 159.375 100.089 159.375 97.5Z" fill="#717ED6"/>
<path d="M186.578 29.4053V46.5953C186.578 47.8895 185.528 48.939 184.234 48.939C182.94 48.939 181.89 47.8895 181.89 46.5953V35.2881L137.184 79.9937C136.269 80.9087 134.785 80.9087 133.87 79.9937L119.438 65.5618L65.2562 116.044C64.8043 116.466 64.2301 116.674 63.6572 116.674C63.0305 116.674 62.4052 116.424 61.9435 115.93C61.0604 114.984 61.111 113.5 62.0574 112.617L117.894 60.5903C118.818 59.7278 120.258 59.7531 121.151 60.646L135.527 75.0217L178.8 31.7485H167.043C165.749 31.7485 164.7 30.699 164.7 29.4048C164.7 28.1106 165.749 27.061 167.043 27.061H184.233C185.528 27.0615 186.578 28.1106 186.578 29.4053Z" fill="#FFF5F5"/>
<path d="M135.511 95.2049C123.115 88.454 107.534 84.7363 91.6405 84.7363C75.7466 84.7363 60.1658 88.4545 47.7692 95.2054C44.6534 96.9027 42.793 99.8474 42.793 103.083V114.008C42.793 120.25 48.7559 125.328 56.0853 125.328H127.195C134.524 125.328 140.487 120.25 140.487 114.008V103.083C140.488 99.847 138.628 96.9023 135.511 95.2049ZM135.801 114.008C135.801 117.665 131.94 120.64 127.196 120.64H56.0863C51.3411 120.64 47.4814 117.665 47.4814 114.008V103.082C47.4814 101.59 48.4278 100.184 50.0117 99.3215C61.7324 92.9385 76.5167 89.4234 91.641 89.4234C106.765 89.4234 121.55 92.9385 133.27 99.3215C134.855 100.184 135.801 101.59 135.801 103.082V114.008H135.801Z" fill="#7C3F2C"/>
<path d="M164.887 128.028V180.05C164.887 212.845 138.096 239.457 105.305 238.938C104.3 238.922 103.533 238.88 103.048 238.812C56.0656 232.168 17.8315 198.317 4.7998 153.711V128.028C4.7998 118.387 12.6148 110.572 22.2551 110.572H147.432C157.072 110.572 164.887 118.387 164.887 128.028Z" fill="#954C35"/>
<path d="M178.481 128.028V224.81C161.178 234.485 141.233 240 120 240C114.245 240 108.586 239.595 103.047 238.812C88.7701 220.047 80.2942 196.628 80.2942 171.229C80.2942 148.867 86.8647 128.04 98.1803 110.572H161.025C170.665 110.572 178.481 118.387 178.481 128.028Z" fill="#AE583E"/>
<path d="M183.281 128.78V144.992C183.281 149.262 181.205 153.271 177.705 155.716C154.201 172.138 124.254 181.977 91.6407 181.977C59.0274 181.977 29.0803 172.138 5.57672 155.716C2.07656 153.271 0 149.262 0 144.993V128.781C0 118.608 8.24719 110.361 18.42 110.361H164.861C175.034 110.36 183.281 118.607 183.281 128.78Z" fill="#C0694E"/>
<path d="M183.281 128.805V145.017C183.281 149.287 181.204 153.296 177.704 155.741C154.201 172.163 124.254 182.002 91.6403 182.002C87.9254 182.002 84.2453 181.874 80.6054 181.624C80.3992 178.851 80.2942 176.05 80.2942 173.224C80.2942 149.923 87.4281 128.288 99.6306 110.385H164.861C175.034 110.385 183.281 118.632 183.281 128.805Z" fill="#C97E67"/>
<path d="M111.278 189.428H72.0035C69.5932 189.428 67.6394 187.474 67.6394 185.064V180.7C67.6394 178.29 69.5932 176.336 72.0035 176.336H111.278C113.688 176.336 115.642 178.29 115.642 180.7V185.064C115.642 187.474 113.688 189.428 111.278 189.428Z" fill="#FF9F22"/>
<path d="M111.278 189.428H80.2942C77.8839 189.428 75.9302 187.474 75.9302 185.064V180.7C75.9302 178.29 77.8839 176.336 80.2942 176.336H111.278C113.688 176.336 115.642 178.29 115.642 180.7V185.064C115.641 187.474 113.688 189.428 111.278 189.428Z" fill="#FFC14F"/>
<path d="M109.096 185.065H74.1854C72.9803 185.065 72.0034 184.088 72.0034 182.883C72.0034 181.678 72.9803 180.701 74.1854 180.701H109.096C110.301 180.701 111.278 181.678 111.278 182.883C111.278 184.088 110.301 185.065 109.096 185.065Z" fill="#FF9100"/>
<path d="M86.8408 185.065H74.1854C72.9803 185.065 72.0034 184.088 72.0034 182.883C72.0034 181.678 72.9803 180.701 74.1854 180.701H86.8408C85.6356 180.701 84.6587 181.678 84.6587 182.883C84.6587 184.088 85.6356 185.065 86.8408 185.065Z" fill="#DD7D00"/>
<path d="M88.9683 91.1656C88.9683 95.996 85.0524 99.912 80.2219 99.912H58.1142C53.4638 99.912 49.6936 97.504 49.6936 94.5335V92.5995C49.6936 91.3526 50.6428 90.1826 52.2431 89.4682C59.955 86.0267 69.1842 83.5756 79.2924 82.466C84.4589 81.8984 88.9683 85.9676 88.9683 91.1656Z" fill="#AE583E"/>
<path d="M133.48 92.5994V94.5334C133.48 97.5039 129.709 99.9119 125.059 99.9119H80.2619C75.43 99.9119 71.5127 95.995 71.5127 91.1626C71.5127 86.7161 74.8446 82.9548 79.2644 82.4687C83.2483 82.0305 87.3686 81.8003 91.5865 81.8003C106.496 81.8003 120.185 84.6733 130.93 89.4681C132.53 90.182 133.48 91.3525 133.48 92.5994Z" fill="#C0694E"/>
<path d="M153.387 32.1094C153.387 33.4036 152.338 34.4531 151.044 34.4531H139.112C137.817 34.4531 136.768 33.4036 136.768 32.1094C136.768 30.8152 137.817 29.7656 139.112 29.7656H151.044C152.338 29.7656 153.387 30.8152 153.387 32.1094Z" fill="#ECECF1"/>
<path d="M152.012 42.8906C152.012 44.1849 150.962 45.2344 149.668 45.2344H140.488C139.194 45.2344 138.144 44.1849 138.144 42.8906C138.144 41.5964 139.194 40.5469 140.488 40.5469H149.668C150.963 40.5469 152.012 41.5964 152.012 42.8906ZM140.488 23.6719H149.669C150.963 23.6719 152.012 22.6223 152.012 21.3281C152.012 20.0339 150.963 18.9844 149.669 18.9844H140.488C139.194 18.9844 138.145 20.0339 138.145 21.3281C138.145 22.6223 139.194 23.6719 140.488 23.6719Z" fill="#C2EAF2"/>
</svg>
