<svg id="Layer_1" enable-background="new 0 0 140 140" height="512" viewBox="0 0 140 140" width="512" xmlns="http://www.w3.org/2000/svg"><g id="_x34_04_Error"><g><g><g><g><g><g><g><g><g><g><g enable-background="new"><path d="m86.9414444 74.1772461c0 .5799561-.4000244 1.2900391-.9100342 1.5799561l-75.6699829 43.6900635c-.3099976.1799316-.5700073.1499023-.7399902-.0100098.0200195.0300293.0499878.0600586.0800171.0799561l-2.9100337-1.6600342c-.1699829-.0999756-.2699585-.2999268-.2699585-.5899658l-.1500273-62.260006 2.9099727 1.6600342 77.5100126-44.7399912z" fill="#4c5c75"/><g><g><g><g><path d="m9.7054787 119.5146484-2.9153242-1.65979c-.165206-.0966187-.2665663-.2992172-.2665663-.5875397l-.1542483-62.2572403 2.9169226 1.6597824.1527262 62.2588043c.0015974.2883073.1028824.4909058.26649.5859833z" fill="#4c5c75"/></g></g></g></g><g><g><g><g><path d="m86.7906189 11.9224167.1537552 62.2580185c.0016479.5808334-.4059448 1.2868423-.9114456 1.5786896l-75.6760912 43.6916122c-.5055017.2918549-.9157581.0580292-.9174051-.5227966l-.1537572-62.2580223z" fill="#d4daea"/></g></g></g></g><g><g><g><g><path d="m86.9174652 65.9645081.0269089 8.2159271c.0016479.5808334-.4059448 1.2868423-.9114456 1.5786896l-75.6760912 43.6916122c-.5055017.2918549-.9157581.0580292-.9174051-.5227966l-.0253792-8.2168198z" fill="#f1f6fa"/></g></g></g></g></g><g enable-background="new"><g><g><g><g><path d="m28.9414425 40.2473183-2.7800293-1.5800781-.1399536-.0800781c.0599976.0300293.1199951.0500488.1799927.0600586.1300049.0100098.289978-.0300293.4599609-.1300049l1.5500488-.9000244c.2699585.0300293.4599609.2600098.4599609.6500244v1.4000244c.0100098.2800292.1099854.4799804.2700196.5800781z" fill="#4c5c75"/></g></g></g></g><path d="m86.79142 11.927249-77.5100126 44.7399911-2.9099727-1.6600341-.0100098-3.709961c0-.5799561.4000244-1.2900391.9100342-1.5799561l1.8899531-1.0900879c.4900513-.2900391.9000244-.9799805.9000244-1.5599365l-.0100098-1.3900146c0-.5900879.4100342-1.2900391.9100342-1.5800781l13.8799448-8.0100098c.25-.1499023.4800415-.1599121.6500244-.0699463l2.9100342 1.6600342c.1699829.0999756.2699585.3000488.2699585.5899658v1.4000244c.0100098.5700684.4100342.8000488.9100342.5100098l56.2799702-32.4899907c.5100098-.2900391.9199829-.0600586.9199829.5200191z" fill="#4c5c75"/><g><g><g><g><path d="m28.4038715 37.6800308c-.1652069-.0966263-.3958549-.0825958-.6498661.0639l-13.8734083 8.0104752c-.5049009.2914429-.9132357.9974174-.9117136 1.5787201l.0031204 1.3995018c.0015974.5703926-.3989754 1.2654686-.8961143 1.5522194l-1.8888712 1.0909233c-.5064993.2929916-.9132357.9989777-.9116383 1.5787201l.0108824 3.7153702-2.9169226-1.6597824-.0108819-3.7153626c-.0015979-.5813026.4067369-1.2872887.9116383-1.5787201l1.8888707-1.0909233c.4971399-.2867584.8992338-.9818268.8977127-1.5537872l-.0047188-1.397934c-.0015221-.5813026.4067373-1.2888489.9117146-1.5787201l13.8734083-8.0104866c.2540112-.1464958.4846592-.1605148.6514626-.0638924z" fill="#4c5c75"/></g></g></g></g><g><g><g><g fill="#4c5c75"><path d="m86.79142 11.927249-77.5100126 44.7399911-.0099487-3.7099609c0-.5800781.4099731-1.2900391.9199829-1.5800781l1.8800049-1.0899658c.5-.289917.8999634-.9799805.8999634-1.5499268v-1.4001465c0-.5799561.4000244-1.289917.9100342-1.5799561l12.2799692-7.0899658 2.7800293 1.5800781c-.1600342-.1000977-.2600098-.3000488-.2700195-.5800781v-1.4000244c0-.3900146-.1900024-.6199951-.4599609-.6500244l54.7299822-31.5899663c.2600098-.1500244.4899902-.1600342.6599731-.0699463l2.8699951 1.6398926c.0100098 0 .0200195.0100098.0300293.0100098.1699829.1000977.2799683.3100586.2799683.6000972z"/><path d="m28.9414425 40.2473183-2.7800293-1.5800781.0400391-.0200195 1.5499878-.8999023c.1699829-.1000977.3300171-.1401367.460022-.130127.2699585.0300293.4599609.2600098.4599609.6500244v1.4000244c.0100097.2800292.1099853.4799804.2700195.5800781z"/></g></g></g></g><g><g><g><g><path d="m86.5127563 7.620604c-.1652069-.0966234-.3958588-.0825934-.6498642.0639024l-56.2854576 32.4968558c-.2493706.1433792-.4768982.1573982-.640583.062336l-2.9153233-1.6613388c.1636066.0950661.3896141.0825958.6389828-.0623398l56.2854576-32.4952985c.2540131-.1464958.4846573-.1605167.6513901-.0638928z" fill="#4c5c75"/></g></g></g></g><g><g><g><g><path d="m27.7537804 37.7445221c.5054474-.2918167.9157581-.0580215.9174061.5228043l.0039673 1.3994675c.0016174.5705338.4059162.8009338.9024029.514286l56.2851218-32.4962325c.5044785-.2912588.9157562-.0580235.9174042.5228009l.0105362 3.7147684-77.5049439 44.7475014-.0105314-3.7147713c-.001647-.580822.4059458-1.2868347.9114466-1.5786858l1.8895292-1.0909233c.4965401-.2866745.8982134-.9824028.896596-1.5529366l-.0039673-1.3994713c-.001647-.580822.4069176-1.2873955.9114466-1.5786858z" fill="#1d2943"/></g></g></g></g></g></g><g><g><g><g><g><path d="m48.0330467 29.5242233c-.2493668.1449356-.475338.1589661-.6389847.0639019l-1.3184471-.7667694c.1636429.0950737.3896141.0810432.6389809-.0623322z" fill="#4c5c75"/></g></g></g></g></g></g><g><g><g><g><g><path d="m19.4804592 45.0139618c0 .0529938-.0358429.1168861-.0826035.1433868l-4.8561459 2.8036652c-.0452013.0264931-.0826025.004673-.0826025-.0483093 0-.0529938.0374012-.1168861.0826025-.1418266l4.8561459-2.8036652c.0452004-.0264931.0826035-.0062332.0826035.0467491z" fill="#fff"/></g></g></g><g><g><g><path d="m23.3563271 41.5962639c0 .05299-.0373631.1168823-.0825653.1433754l-8.7351713 5.0431824c-.0452023.0264893-.0826035.0046692-.0826035-.0483131 0-.0529938.0374012-.1168861.0826035-.1433868l8.7336111-5.0431709c.0467624-.0264932.0826034-.0046693.0841255.048313z" fill="#fff"/></g></g></g><g><g><g><path d="m27.3491192 40.3557358c.0311604.0186996.0311604.0779228 0 .1340256-.0171223.0280495-.0374031.0498695-.0592041.0623322-.0218391.0124702-.0420818.0140305-.057682.0046806l-.4129753-.2353287-.4114552.7106552c-.0155621.0280533-.0374012.0498734-.0576439.0623436-.0218391.0124588-.0420799.0155792-.0592403.0062294-.0327225-.0186996-.0327225-.079483 0-.1340256l.4098949-.7122154-.4130154-.2353287c-.0327206-.0171432-.0327206-.0779228 0-.1340256.0156002-.0280533.0374393-.0498734.057682-.0623436.021801-.01091.043642-.014019.0592022-.0046692l.4130154.2353287.4098568-.7122192c.0171585-.0265007.0374012-.0483093.0592403-.0607796.0202427-.0124702.0420818-.015583.0592041-.0062332.0311985.0187035.0311985.0794754 0 .1340256l-.411417.7122192z" fill="#fff"/></g></g></g></g></g></g><g><g><g><g><path d="m84.0764542 63.9718094c0 .3850479-.264801.8545685-.601738 1.0470123l-70.9552307 40.964653c-.3370085.1924515-.601737.0359955-.6137838-.3490524l-.0842514-44.9080772v-2.7319107c-.0120468-.3850479.264802-.8544197.6017361-1.0470161l70.9552316-40.9645053c.3370056-.1925974.601738-.0361395.601738.3490534z" fill="#fff"/></g></g></g></g><g><g><g><g><g><path d="m35.1326103 99.829834c.5647888-.3260803 1.0241623-.0643005 1.026001.5846863.0018425.6489944-.4545479 1.4406509-1.0193329 1.7667313l-9.1455498 5.2801819c-.5647869.3260803-1.0241642.0631409-1.0260029-.5858459-.0009212-.324501.1122074-.684639.2971802-1.0038605.1839638-.3198013.4397602-.5986633.7221565-.7617035z" fill="#479ff6"/></g></g></g></g><g><g><g><g><g><path d="m22.3390732 107.1964417c.5738659-.3313217 1.041338-.0648956 1.0432072.5944977.001873.6605911-.4625626 1.4650192-1.0364285 1.7963409-.575882.3324814-1.0433521.0660934-1.0452251-.5944977-.0018692-.6593933.4625663-1.4638519 1.0384464-1.7963409z" fill="#479ff6"/></g></g></g></g></g><g><g><g><g><path d="m55.7413635 87.931366c.5657997-.3266678 1.0251732-.064888 1.0270119.5840988.0018425.6489944-.4545479 1.4406509-1.0203438 1.7673111l-9.1445465 5.2796097c-.564785.3260803-1.0251732.0637207-1.0270157-.5852661-.0009193-.3244934.1132202-.6852264.2971878-1.0038605.1849709-.3203812.440773-.5992508.7231636-.762291z" fill="#4c5c75"/></g></g></g></g><g><g><g><g><path d="m42.9478302 95.2979736c.5748672-.3319016 1.0423393-.0654755 1.0442085.5939178.001873.6605911-.4625626 1.4650192-1.0374336 1.7969208-.5748749.3319016-1.0433578.0660934-1.0452309-.5944977-.0018692-.6593932.4635773-1.4644393 1.038456-1.7963409z" fill="#4c5c75"/></g></g></g></g><g><g><g><g><g><path d="m76.35112 76.0323181c.5647888-.3260803 1.025177-.064888 1.0270157.5840988.0018387.6489944-.4555588 1.4412308-1.0203476 1.7673111l-9.145546 5.2801895c-.5647888.3260803-1.0241699.0631409-1.0260086-.5858536-.0009155-.3244934.1132202-.6852188.2971802-1.0038528.1839676-.3198013.4397583-.598671.7221603-.7617111z" fill="#f45170"/></g></g></g></g></g><g><g><g><g><g><path d="m63.5575867 83.3989258c.5738602-.3313217 1.0423355-.0654831 1.0442047.5939178.0018768.6605911-.463562 1.4655991-1.037426 1.7969131-.5758896.332489-1.043354.0661011-1.0452271-.5944901-.0018692-.6594008.4625588-1.4638518 1.0384484-1.7963408z" fill="#f45170"/></g></g></g></g></g></g></g></g><g enable-background="new"><g><path d="m40.2114601 66.6672363c-.0100098 0-.0100098-.0100098-.0200195-.0100098l-1.0700073-.6199951c0-.0100098-.0100098-.0100098-.0100098-.0100098l-.0200195-.0100098c-.1999512-.1199951-.4399414-.0899658-.7199707.0799561l-.6199951.3500977-.0200195-9.1201134c0-.4799805-.1400146-.789917-.3999634-.9599609l-1.1000366-.6398926c-.2699585-.1600342-.6199951-.1201172-1.0499878.1298828-.2846985.1828346-1.166996.5124207-1.7000122 1.6600342l-7.3599834 15.1099815c-.3772163.7544327-.2729702 1.2514572-.289978 1.4499512 0 .4300537.1300049.7301025.3899536.880127l1.1100464.6398926c.0099487.0100098.0199585.0100098.0299683.0200195.2800293.1500244.6199951.1201172 1.0200195-.1099854l5.9999981-3.4599609c.0815048 1.9833221-.2047501 2.7192154.3300171 3.0499268l1.1099854.6401367c.6868439.3742981 1.9599609-.8673172 1.9599609-2.0600586l-.0099487-3.5900879 1.7099609-.9899902c.2900391-.1599121.5300293-.4199219.7300415-.7600098.2099609-.3398438.3099976-.6799316.3099976-1.0100098-.0000002-.3298339-.1000368-.5499267-.3099978-.6599121zm-5.8500366 1.7399903-4.0599957 2.3499756 4.0499859-8.3800011.0200195 6.0300255z" fill="#cc104a"/><g><g><g><path d="m39.1100121 66.0262985-.0146065-.0084152c-.1991348-.1158295-.4431076-.0864944-.7256088.0765381l-1.7147713.9899292 1.1048698.6421814 1.7147064-.9901886c.2823715-.1629028.5261536-.1921158.7253532-.0765381l.0096283.0056152c.005806.0030594.0116119.0063782.0172882.0096893l-1.104805-.6421738c-.0039557-.0021667-.0080375-.004341-.0120543-.0066375z" fill="#df3260"/></g></g></g><g><g><g><path d="m34.3664551 68.4057007-6.0316124 3.4823532 1.104805.6420517 6.0316124-3.4823532z" fill="#df3260"/></g></g></g><g><g><g><path d="m35.4779549 71.4091644-1.1048012-.641922c.0999336 3.3415222-.2078438 3.995575.3397751 4.3268585l1.104805.6420441c-.5472222-.3313598-.2391968-.9638214-.3397789-4.3269806z" fill="#cc104a"/></g></g></g><g enable-background="new"><g><g><g><g><path d="m35.4712791 69.0477753-1.1048049-.6420441-.0253449-8.9396248 1.1048088.6420441z" fill="#cc104a"/></g></g></g></g><g><g><g><g><path d="m40.2095528 66.6654358c.2075043.1105804.3083801.3364944.3093147.6661453.0009346.3296432-.0983543.6634064-.3045769 1.0051498-.1995316.3379898-.4460716.5955276-.732975.7611694l-1.714756.9900208.0101738 3.5880356c.0047874 1.6891327-2.2836227 3.072258-2.2885857 1.3213196l-.0101738-3.5880432-7.0992203 4.0987396c-.3936615.2272797-.7344112.2626724-1.0155411.1101151-.2810841-.1448898-.4289894-.4511337-.4302711-.9034805.0124454-.1339111-.0840321-.6836777.296648-1.4460754 7.7025547-15.7327728 7.440382-15.8378601 8.5878086-16.5003281l.4737358-.27351c.8798447-.5079803 1.4366188-.0952034 1.4392357.8277931l.0294952 10.4039688 1.714756-.9900131c.2869035-.1656418.5340959-.1931839.7349321-.0710068zm-4.7382737 2.3823395-.025341-8.9396248-6.0063171 12.4220009z" fill="#f45170"/></g></g></g></g></g><g><g><g><path d="m37.3333054 56.3691406-1.1048012-.6421776c-.267765-.1602249-.6151352-.1209335-1.0421677.1256561-1.8229523 1.1698761-.4382973-.8395271-9.0615463 16.7737999-.3790226.7590179-.2836094 1.3056641-.2966595 1.4461136.0012112.4348831.1379642.7346649.3982677.8859634l1.1048031.6420441c-.5005455-.2909317-.3819294-1.010849-.3989697-1.1312714-.0011482-.3987808.0979729-.801506.2973614-1.2006683l7.3553868-15.1053428c.5688057-1.2168045 1.4994621-1.5087395 1.7061577-1.6685905.4270363-.24646.7744026-.2858811 1.0421677-.1255265z" fill="#df3260"/></g></g></g><path d="m53.341404 49.1772499c-.2399902-.25-.5199585-.4299316-.8199463-.5700684.0799561.0400391.1599731.0700684.2399902.1101074-.8014336-.2388802-1.8547363-2.0731392-5.3200073-.0700684-4.6036377 2.6430969-6.4379539 8.1593399-6.4199829 13.5100098.0099487 2.9799767.5699463 5.0600548 1.6699829 6.1799278.4192924.4427567.6950111.5038681 1.6900024 1.1101074-.0200195-.0100098-.0300293-.0300293-.0499878-.0500488 1.0599976.6700439 2.5.5 4.2699585-.5300293 4.5960045-2.6420059 6.4299927-8.2305527 6.4299927-13.510006-.0099487-2.9899901-.5799561-5.0599364-1.6900024-6.1799315zm-5.8499756 16.5999718c-.75.4400635-1.4000244.5999756-1.960022.5200195-.0099487-.0100098-.0199585-.0200195-.0199585-.0300293-.7200317-.8800049-1.0900269-2.4899864-1.1000366-4.7899132-.0159073-3.6460114.9991722-7.9016876 4.1400146-9.7200928.75-.4300537 1.4000244-.5899658 1.960022-.5098877.0100098.0098877.0100098.0198975.0199585.0198975.7200317.8800049 1.1000366 2.4801025 1.1000366 4.7700195.0158806 3.6322556-.9774627 7.9328156-4.1400146 9.7399865z" fill="#df3260"/><g><g><g><g><path d="m53.3457909 49.1747665c1.1058884 1.1200371 1.6731453 3.1961861 1.6815987 6.1785965.0150566 5.3110886-1.8440018 10.8712845-6.4242477 13.5156937-4.5927086 2.6516037-6.4646339-.7215271-6.4797859-6.0655479-.0150337-5.302887 1.7952461-10.8430557 6.4242744-13.515625 2.0683784-1.1941796 3.685562-1.2370835 4.7981605-.1131173zm-1.6791764 13.5406266c.7169075-1.7117462 1.0787354-3.7483139 1.0722351-6.040741-.0103188-3.640377-1.0285645-6.7400055-4.1842232-4.9180832-3.1626511 1.8259583-4.1530495 6.0772247-4.1427078 9.7256393.0104332 3.6799774 1.0240364 6.7657089 4.184288 4.9411392 1.3277589-.7665786 2.3667908-2.0192184 3.0704079-3.7079543z" fill="#f45170"/></g></g></g></g><g><g><g><path d="m49.9961624 50.8037262c1.4211349.8262863 1.633213 3.5792274 1.6379128 5.2288895.0102997 3.6655998-.9841118 7.9248886-4.1426468 9.7487564-1.0330467.5962524-1.8871803.6983032-2.5532761.311264l1.104866.6420517c.6660347.3870392 1.5202293.2851181 2.5532112-.3113937 3.1585007-1.8235397 4.1529503-6.0829315 4.1426468-9.7486267-.0065041-2.2846184-.3786201-3.8822823-1.10289-4.7618637-.3832855-.4700585-.6637115-.5075264-1.6398239-1.1090775z" fill="#df3260"/></g></g></g><g><g><g><path d="m47.4428253 48.6459122c-4.629509 2.6726227-6.4393463 8.2135315-6.4242668 13.5155869.008419 2.974762.5690155 5.0547562 1.6682091 6.1786346.4359169.4445343.7420502.5267105 1.6986961 1.1080551-1.9178467-1.113884-2.255825-4.4271164-2.262104-6.6447678-.0150833-5.3032646 1.7954559-10.8430824 6.4242668-13.5155869 1.7293777-.9983482 3.14328-1.1919937 4.21064-.5717583l-1.1048012-.6420517c-1.0673638-.6203612-2.4812661-.4267158-4.21064.5718881z" fill="#df3260"/></g></g></g></g><path d="m69.7614517 49.6071815s-.0100098 0-.0100098-.0100098l-1.0999756-.6398926c-.4165344-.2501488-.8626862.1996155-1.3400269.4299316l-.0300293-9.1300049c0-.4699707-.1399536-.789917-.3999634-.9499512l-1.1000366-.6400146c-.2699585-.1600342-.6199951-.1199951-1.039978.1199951-.2218323.172081-1.1474304.4582176-1.7100258 1.6700439l-7.3599854 15.1099854c-.3680191.7748184-.2758255 1.2927284-.289978 1.4399414 0 .4400635.1300049.7401123.3900146.8900146l1.0599976.6199951c-.0100098-.0198975-.0200195-.0299072-.0400391-.039917.2824898.2110062.6175117.2703667 1.1400146-.0300293l6-3.4599609c.0811043 1.9735756-.2045021 2.7190552.3300209 3.0499268l1.1099854.6400146c.6921539.3775749 1.960022-.8799706 1.960022-2.0600586l-.0100098-3.5899658c1.4909515-.9385262 1.9585037-.931591 2.4400024-1.75.3017733-.5129316.5124743-1.387924.0000002-1.6700438zm-9.910038 4.0900879 4.0500488-8.3800049.0199585 6.0299072z" fill="#cc104a"/><g><g><g><g><path d="m65.0225143 51.9863586-1.1048088-.642044-.0253448-8.939621 1.1048088.6420441z" fill="#cc104a"/></g></g></g></g><g><g><g><path d="m68.6466827 48.9564133c-.4713058-.2737617-.9408493.2755318-2.4404373 1.066597l1.1047974.6420517c1.497467-.7899437 1.9692459-1.3402977 2.4404449-1.066597z" fill="#df3260"/></g></g></g><g><g><g><path d="m65.0292358 54.3478241-1.104866-.6420517c.1001282 3.3481598-.2077026 3.9954681.3397751 4.3269844l1.104805.6420517c-.547081-.331604-.2390747-.9602051-.3397141-4.3269844z" fill="#cc104a"/></g></g></g><g><g><g><path d="m63.9177361 51.3442345-6.0317421 3.4824791 1.104805.6420517 6.0317382-3.4823533z" fill="#df3260"/></g></g></g><g><g><g><path d="m66.8845825 39.3076706-1.1047974-.6420479c-.2677689-.1603546-.6151962-.1209373-1.0422363.1256523-.2252045.1738472-1.1303635.4372673-1.7061577 1.6684647l-7.3553848 15.1053391c-.3791008.7589302-.2836609 1.3061028-.2966614 1.4459839.0012779.4355202.1320992.7390022.3925285.8904266l1.104805.641922c-.4833832-.2808151-.3767509-1.0134773-.3932304-1.1356125-.0028572-1.0510902-.0335846-.3311043 7.6527443-16.3060074.5289917-1.1311264 1.416893-1.482914 1.7061615-1.6685905.4270325-.2464638.7744675-.2857552 1.0422287-.1255303z" fill="#df3260"/></g></g></g><g><g><g><g><path d="m69.7655258 51.2753181c-.4848862.8212738-.9590607.8154182-2.4477539 1.7512016l.01017 3.5880394c.0021591.762722-.5420532 1.6184654-1.1506042 1.9698143-.6399841.3694916-1.1358719.0881119-1.1379547-.6485138l-.0101776-3.5880394-7.0992432 4.0987511c-.7593956.4384384-1.4430771.1637802-1.4457893-.7933769.0124435-.1339073-.084053-.6836662.296627-1.4460564 7.8117905-15.9658546 7.4794617-15.8604279 8.5878296-16.5003471l.4737167-.2734985c.4270325-.2465477.7744446-.2858963 1.0422211-.1256256.7050323.4431381.2753143 1.125103.426506 11.3573914l1.7147598-.9900131c.9174958-.5297204 1.3994599.4830436.7396927 1.600273zm-4.7430115.7110405-.0253448-8.939621-6.00634 12.4220161z" fill="#f45170"/></g></g></g></g></g><g><g enable-background="new"><g><g><g><g><path d="m19.8193645 58.1983833c.1934948-.1117172.3474789-.0162582.3480873.1983757.0006294.2223282-.1523323.4872932-.3458271.5990067l-5.2777147 3.0470924c-.186821.1078606-.3407831.0200958-.3414125-.2022324-.0006094-.2146301.1523304-.4872932.3391514-.5951538z" fill="#57b3fe"/></g></g></g></g><g><g><g><g><path d="m19.81493 56.6343918c.1934948-.1117134.3474789-.0163612.3480873.1982727.0006294.2224312-.1523323.4872932-.3458271.5990105l-5.2777147 3.0470886c-.186821.1078606-.3407822.0202026-.3414125-.2022324-.0006084-.2146301.1523314-.4871864.3391523-.5950508z" fill="#57b3fe"/></g></g></g></g><g><g><g><g><path d="m19.8104954 55.0702972c.1934967-.1117134.3474789-.0162544.3480873.1983757.0006313.2223282-.1523304.4872971-.3458252.5990105l-5.2777157 3.0470886c-.186821.1078606-.3407822.0200996-.3414125-.2022285-.0006084-.2146339.1523304-.4872932.3391514-.5951576z" fill="#57b3fe"/></g></g></g></g></g><g><g><g><g><path d="m29.2176838 49.4163628c.3402824-.1964607.6080837-.0284958.6091709.354805l.0084114 2.9671097c.0010872.3833046-.2648888.8594437-.6051712 1.0559082l-5.9649601 3.4438705c-.3469448.2003098-.6147461.0323448-.6158333-.3509598l-.0084114-2.9671097c-.0010872-.3833008.2648888-.8594437.6118336-1.0597534z" fill="#78e75a"/></g></g></g></g><g><g><g><g><path d="m79.8392487 19.7003231c.3733597-.215559.6805344-.0318928.6817551.3970795l.0094147 3.3206406c.0012131.4289722-.3039246.9661579-.6772766 1.1817169l-4.2637787 2.4616928-.0138931-4.899437z" fill="#4c5c75"/></g></g></g></g><g><g><g><g><path d="m75.5680161 22.1663227.0138855 4.899437-37.5301629 21.6680507c-.3882942.2241821-.6880074.0362053-.6892204-.3927689l-.0094147-3.3206406c-.0012169-.4289703.2964516-.9618454.6847458-1.1860275z" fill="#f1f6fa"/></g></g></g></g></g><g><g><g><g><g><path d="m78.898613 21.7613564c-.1787338-.107275-.4170609-.0715637-.6494293.0654545-.2382965.1370201-.470665.3754234-.6493912.6852474-.3098221.5301876-.351532 1.096159-.1370544 1.3822002l-.5242996.9115028.3038559.1668396.5242996-.9056129c.1489487.0178909.3157883-.0297451.4885483-.1250935.2323685-.1370201.470665-.375349.6494293-.6850986.3514938-.6196461.3514938-1.292965-.0059586-1.4954395zm-.2978974 1.3285999c-.0953445.1668396-.2264023.2919312-.351532.3693142-.1250916.0715656-.2561874.0894566-.3514938.0357819-.1966248-.1131649-.1966248-.4766598 0-.8102646.0953064-.1727295.2204361-.2978954.3514938-.375351.1310883-.0714912.2561874-.0893841.351532-.0357819.1965866.1132374.1965866.4766598 0 .8163014z" fill="#fff"/></g></g></g></g></g><g><g><g><g><g><path d="m41.8942947 43.0809937c0 .0161133-.0023041.0402794-.0103531.072506l-.647934 2.6907082c-.0184212.0678978-.0460396.1288948-.0805626.1795273-.0368309.051796-.0771065.0909233-.1242943.1185417-.046032.0264664-.0886192.0345306-.1265945.0230255-.0379791-.0115051-.0644455-.0402756-.0782547-.0851784l-.5351524-1.6226921-.5247917 2.2349586c-.0138092.0610008-.0402794.1196938-.0782585.1749344-.0379791.0552368-.0805626.0966682-.1265984.1231499-.046032.0264664-.0874596.0345154-.1242867.0253143-.0345268-.0103683-.0632973-.0391388-.0817146-.0851631l-.6605911-1.9346008c-.0069046-.0253143-.0103607-.0448837-.0103607-.062149-.0022964-.0494804.0103607-.1001129.0391312-.1507568.0299225-.0506439.0690498-.0897713.1150856-.1173897.0368271-.0207214.0702019-.0264664.0989723-.0161133.0276184.0115204.0471878.0345306.0586967.0702019l.5604668 1.7700193.5501137-2.4029922c.0115051-.0529366.034523-.1024284.0678978-.1496048.034523-.0483398.0725021-.0840111.1139336-.1081886.0414352-.0241623.0794067-.0322113.1139412-.0230103.0322189.008049.0563889.0322113.067894.0713539l.5627747 1.7608185.5478096-2.4099083c.0103531-.0494919.0310669-.0955162.0586929-.1392632.0287743-.0425644.0609932-.0759468.0989723-.097805.046032-.0264816.0851631-.0322266.1150856-.0149765.0287742.0172654.0425834.0517998.0402793.1047326z" fill="#4c5c75"/></g></g></g><g><g><g><path d="m45.272068 41.1314392c0 .0161133-.0023041.0391312-.0103607.072506l-.647934 2.6895485c-.0184097.0690613-.0460358.1300621-.0805588.1806908-.0368309.0506325-.0771065.0909233-.1242905.1173935-.0460358.0264664-.0886154.0345306-.1265984.0241623-.0379791-.0126572-.0644455-.0402794-.0782585-.0851631l-.5351486-1.6238594-.5247917 2.2361259c-.013813.060997-.0402794.1185417-.0782585.1749306-.0379753.0540886-.0805626.0955162-.1265907.1231346-.0460396.0264702-.0874672.0345192-.1242981.0241661-.034523-.009201-.0632935-.0379753-.0805588-.0851631l-.6617432-1.9334335c-.0069084-.0264702-.0103569-.0460396-.0103569-.0633049-.0023041-.0483246.0103569-.0989723.0402794-.1507607.0287704-.0506401.0679016-.0897713.1139336-.1162376.0368271-.0218697.0702057-.0276222.0989799-.0172653.0276184.0115128.0483322.0345306.0598373.0713577l.5593224 1.7700233.5512619-2.4041481c.0103531-.0517883.034523-.1024284.0667496-.1496162.0345268-.047184.072506-.0840111.1139336-.1081734.0414314-.0230179.0794106-.0310783.1139336-.0230179.0333748.0080566.0563927.0322189.0678978.0713501l.5627709 1.7608146.5478134-2.4099007c.0115051-.0494843.0310745-.0955238.0586929-.1381035.0287704-.0437317.0609932-.0759544.0989723-.0978203.0460358-.0264664.0851631-.0322266.1150856-.0161133.0287705.0172654.0425835.0529405.0402832.105877z" fill="#4c5c75"/></g></g></g><g><g><g><path d="m49.2183647 41.1602097v.0230179c0 .0610008-.0195656.1242943-.0575447.1910477-.0379791.0655937-.0840111.1150856-.1369514.1461525l-.0333748.0195732c-.0529404.0299149-.1001244.033371-.1381035.0126572-.0379791-.0218658-.0586929-.0644493-.0586929-.1254463v-.0218697c0-.0621414.0195618-.1265907.0575409-.1921883.0379791-.0656013.0840111-.1150894.1369514-.1461639l.0345268-.0195618c.0529404-.0299225.0989723-.034523.1369514-.0126572.0391312.0218658.0575448.0632934.0586968.1254387z" fill="#4c5c75"/></g></g></g><g><g><g><path d="m48.6498375 39.1807365c0 .0161095-.0023041.0402794-.0103607.0724983l-.647934 2.6895638c-.0184097.0690498-.0448761.130043-.080555.1806793-.0368271.0517921-.0771103.0909233-.1242943.1185417-.0460358.0264702-.0886192.0333748-.1265907.0230179-.0379791-.0115128-.0644493-.0402832-.0782661-.0851593l-.5351448-1.6227188-.5247917 2.2349663c-.0138092.0610008-.0402832.1196938-.0782585.1749344-.0379791.0552406-.0805588.0966682-.1265984.1231346-.0460281.0264702-.0874634.0345345-.1231422.0253296-.035675-.0103531-.0632935-.0391235-.081707-.0863113l-.6617432-1.9334488c-.0069046-.0253181-.0103607-.0448799-.0103607-.0621452-.0022964-.0494881.0115128-.1001244.0402832-.1507645.0299187-.0517883.0678978-.0897675.1139336-.1173897.0368309-.0207138.0702019-.0264664.0989723-.0161133.0276222.0115128.048336.0333786.0598488.0702095l.5593147 1.7700195.5512581-2.4029922c.0103645-.0529442.0345268-.1035805.0667534-.1496124.034523-.0483398.072506-.0840149.1139336-.108181.0414314-.0241699.0794106-.0322266.1139336-.0230179.0333786.0080566.0563927.0322227.0679054.0702019l.5627708 1.7608147.547802-2.4087486c.0115128-.0494881.0310783-.0955238.0586967-.1392555.0287704-.0425835.060997-.0759544.0989799-.0978203.0471802-.0264702.0851631-.0322227.1150856-.0149612.0287705.0172652.0425797.0517882.0402756.1047285z" fill="#4c5c75"/></g></g></g></g></g></g><g><g><g><g><path d="m133.641449 36.4172401c0 .1300049-.0100098.2600098-.0300293.3900146-.1199951.9200439-.5999756 1.9499512-1.3399658 3.0299072-3.7000122 5.460083-13.640007 12.2000732-13.640007 12.2000732l-.9199829.4899902-1.4800415-1.0599365-2.6300049-1.8901367-1.789978-3.3798828c1.9299927-1.5300293 4.5700073-3.8100586 5.0900269-3.75 3.2113113-1.7278519 5.7414322-3.6897659 8.5499878-6.0300293 0 0-5.7600098-5.8800049-7.1400146-6.3800049-2.6199951-.9500732-3.8099976-3.8699951-4.5-4.4400635-.7000122-.5599365-6.0700073-2.1398926-3.7399902-3.6699219.1799927-.1199951.3599854-.2199707.5499878-.3000488 4.0200195-1.7099609 10.0900269 4.6999512 10.0900269 4.6999512s12.9699628 5.5000002 12.9299848 10.090088z" fill="#f5c9c6"/></g></g></g><g><g><g><path d="m130.4214172 36.4172401c-.0452881 4.5695953-10.4617004 12.4129944-14.1899948 15.0500488l-2.6300049-1.8901367-1.789978-3.3798828c1.9299927-1.5300293 4.5700073-3.8100586 5.0900269-3.75 3.1903-1.7165451 5.7273712-3.6780548 8.5499878-6.0300293 0 0-5.7600098-5.8800049-7.1400146-6.3800049-2.6199951-.9500732-3.8099976-3.8699951-4.5-4.4400635-.7000122-.5599365-6.0700073-2.1398926-3.7399902-3.6699219.1799927-.1199951.3599854-.2199707.5499878-.3000488 3.4199829 1.0600586 6.8699951 4.6999512 6.8699951 4.6999512s12.970024 5.5000001 12.9299849 10.0900879z" fill="#f4d6d4"/></g></g></g><g><g><g><path d="m103.8414078 42.2373085-1.7099609 9.6899414-.3099976 1.7800293s-7.1000366 8.4099121-9.7300415 8.9499512c-2.5099487.5200195-6.1199951-8.4799805-8.0099487-11.4399414-1.9000244-2.960083-5.1199951-3.75-6.7000122-5.25-1.5900269-1.5-.0200195-6.6201172.539978-6.5.8300171.1699219 5.0700073 4.25 4.9700317 3.5200195-.1000366-.7301025-.3500366-4.75.4799805-4.2700195.8300171.4699707.4799805 2.6999512 1.5100098 3.5100098 1.9099731 1.4899902 2.0800171 5.4799805 2.0800171 5.4799805l5.0099487 6.9399414s4.5500488-6.1899414 6.2000122-8.9699707c2.1500244-3.6099854 5.6699829-3.4399415 5.6699829-3.4399415z" fill="#f5c9c6"/></g></g></g><g><g><g><path d="m103.8414078 42.2373085-1.7099609 9.6899414c-1.9100342 2.1799316-6.8599854 7.6300049-8.960022 8.0600586-2.5100098.5198975-6.1199951-8.4801025-8.0100098-11.4400635-1.8999634-2.960083-5.1199951-3.75-6.6999512-5.25-.7900391-.7399902-.8000488-2.3800049-.5400391-3.8299561.8300171.1699219 5.0700073 4.25 4.9700317 3.5200195-.1000366-.7301025-.3500366-4.75.4799805-4.2700195.8300171.4699707.4799805 2.6999512 1.5100098 3.5100098 1.9099731 1.4899902 2.0800171 5.4799805 2.0800171 5.4799805l5.0099487 6.9399414s4.5500488-6.1899414 6.2000122-8.9699707c2.1500245-3.6099853 5.669983-3.4399414 5.669983-3.4399414z" fill="#f4d6d4"/></g></g></g><g><g><g><path d="m99.551651 121.3923874s-4.2242508 4.3485413-6.504158 5.2542572c-2.2799149.9057159-3.6096191 4.098381-2.0792694 4.8167191 1.5303497.7183228 7.6205292.5621643 9.6818161-1.7489777s5.6216965-2.4360733 5.7778549-3.5604095-1.0111465-5.7182159-1.0111465-5.7182159z" fill="#9ea9c9"/></g></g></g><g><g><g><path d="m119.7910385 134.062439c-3.7199707.2999268-5.2199707-1.1500244-4.6699829-4.7399902.5599976-3.5900955.2299805-7.9300613.2299805-7.9300613l5.6600342.1600342s.6099854 4.3599854.8899536 6.25c.2700195 1.8899001 1.6100464 5.9599684-2.1099854 6.2600173z" fill="#9ea9c9"/></g></g></g><g><g><g><path d="m112.5010605 71.6672363c-1.1400146 9.5300293-1.9100342 18.5600586-4.1700439 27.0600586 1.0600586 7.1298828.1700439 15.9299316-2.3199463 24.3099365 0 .6199951-2.5800171.8699951-4.6900024.7600098-1.4700317-.0799561-2.710022-.3299561-2.710022-.7600098 0 0-.5499878-20.1900635-.4299927-26.9200439.0899658-5.3599854 1.0360794-19.3289948 1.0360794-19.3289948l13.5839157-7.6009369c-.0999756.8299561-.210022 1.6599122-.2999878 2.4799805z" fill="#4c5c75"/></g></g></g><g><g><g><path d="m108.3310165 98.7272949c1.0600586 7.1298828.1700439 15.9299316-2.3199463 24.3099365 0 .6199951-2.5800171.8699951-4.6900024.7600098.1599731-.2299805.3099976-.4899902.4400024-.7700195.6799927-1.4200439.9400024-3 1.1399536-4.5599365.5900269-4.4899902.7300415-9.0400391.4200439-13.5600586-.2400513-3.6300049-.7700195-7.2399902-.7400513-10.8699951.0500488-5.2399902 1.2600098-10.3800049 2.460022-15.4699707.4700317-1.9801025.9400024-3.9500732 1.4000244-5.9200439.0799561-.3100586.1699829-.6499023.4400024-.8299561.2099609-.1400146.4799805-.1500244.7299805-.1500244 1.4299927 0 2.8699951 0 4.3099976-.0100098.1900024 0 .3800049 0 .5800171.0100098-1.1400146 9.5300292-1.9100341 18.5600585-4.1700439 27.0600585z" fill="#445268"/></g></g></g><g><g><g><path d="m119.7548981 72.1586533c1.3634262 8.1915741 1.253418 15.9550781.1004028 26.1127777 1.0507584 8.5994492 2.0263596 16.2806625 1.7140732 26.364151 0 .6295395-6.3097839.6295166-6.3097839 0-4.8459473-18.5170898-5.2821503-34.6177139-6.9623871-54.1337051z" fill="#4c5c75"/></g></g></g><g><g><g><path d="m121.0314102 78.0272217c-.0199585 1.25-2.1199951 1.9799805-5.0299683 2.3199463-6.6699829.7900391-17.5700073-.4399414-17.210022-1.9699707.8900146-3.7700195 1.3800049-21.1599083 1.3800049-21.1599083-6.0700073-4.1201172 3.6600342-14.9799805 3.6600342-14.9799805.2599487-.0200195.5199585-.0300293.7699585-.0400391 4.1199951-.2600098 7.9700317-.3100586 11.1799927.0999756.3900146.0599365.7600098.1099854 1.1300049.1700439-2.5999756.5300293-.9599609 10.1398926 1.6300049 9.619873 0 0-.2199707 4.880127-.5 7.9200439-.459961 5.0899622 3.0700073 13.890011 2.9899902 18.0200159z" fill="#78e75a"/></g></g></g><g><g><g><path d="m100.1333618 57.2054482s6.4580841 4.0101929 13.3549881-.7031174c0 0-1.9761581 5.2194786-13.395401 2.2931747z" fill="#72d561"/></g></g></g></g><g><g><g><g><path d="m115.7810287 42.2872353c-.3829651 1.961689-3.6391525 7.9064751-9.7333069 7.6376152-1.358757-.0599442-1.9266663-4.0579262-1.4466858-7.7278481 4.1199952-.25 7.9700318-.2997818 11.1799927.0902329z" fill="#f5c9c6"/></g></g></g></g><g><g><g><g><path d="m113.1749496 37.5821571c-.3278809-2.7513428-1.0161133-8.5152588-1.0807495-8.7875977-.0737915-.3482666-5.0689697-2.5697021-5.0689697-2.5697021l-3.8494263 2.2736816-1.4440918 3.8574219 1.1790161 5.2550049 2.0057373 2.8787842 8.3299561-2.2827148c-.0214233-.1845703-.045105-.3911133-.0714722-.624878z" fill="#f4d6d4"/></g></g></g><g><g><g><path d="m104.9164658 40.4897499 1.1418457 1.6386719.8962402 1.2856445c-.7059937 1.9344482 2.8197632 2.8637695 3.1477661 1.9814453l3.239563-6.3833008s-.0375366-.3059082-.095459-.8051758z" fill="#f5c9c6"/></g></g></g></g><g><g><g><path d="m101.4243088 31.250618s-.3451614 9.8896866 5.5309067 12.1563416l.2416458-3.5421638s-1.8208466.6337814-2.3347397-.3276443c-.5219879-.9629974-2.6029358-4.0703583-1.3673477-6.2537651 0 0-.6794128-2.1505127-.3375626-2.3881035.3417587-.2374039 5.3199844-3.0352402 5.6160507-2.6905193.2879028.3432331 5.8968124 10.6229496-1.1011353 20.5016766 0 0 2.9267197-1.4994774 3.9485474-2.2802925 1.0071335-.7921333 7.3286972-6.9345436 5.6925964-15.1491165-.7910614-3.9205437-2.9962311-5.9118996-5.0889893-6.918829-2.7104874-1.304451-6.0016251-1.1003952-8.3377838.7927589-1.4732894 1.1911982-2.7314528 3.0999106-2.4621886 6.0996569z" fill="#aa6256"/></g></g></g><g><g><g><g><path d="m118.7702255 127.6137695c-.6542969 0-1.3125-.1777344-1.9702148-.5351563-.121582-.0654297-.1665039-.2177734-.1005859-.3388672.0664063-.1220703.2192383-.1660156.3388672-.1005859 1.1733398.6367188 2.2963867.6376953 3.4355469.0009766.1196289-.0673828.2724609-.0244141.3398438.0966797s.0239258.2734375-.0966797.3408203c-.6416017.3574219-1.2919923.5361328-1.9467775.5361328z" fill="#fff"/></g></g></g><g><g><g><path d="m118.7682724 129.4467773c-.5849609 0-1.1733398-.1601563-1.7617188-.4794922-.1210938-.0664063-.1660156-.2177734-.1000977-.3388672.0664063-.1220703.21875-.1660156.3393555-.1005859 1.0307617.5595703 2.019043.5625 3.0214844.0009766.1196289-.0664063.2724609-.0234375.3398438.0966797.0673828.1210938.0239258.2734375-.0966797.3408203-.5742188.3203125-1.1567383.4804687-1.7421875.4804687z" fill="#fff"/></g></g></g><g><g><g><path d="m118.7672958 131.2290039c-.5234375 0-1.050293-.1425781-1.5766602-.4287109-.121582-.0654297-.1665039-.2177734-.1005859-.3388672.0664063-.1220703.2197266-.1660156.3388672-.1005859.90625.4912109 1.7739258.4921875 2.6547852.0009766.1196289-.0664063.2729492-.0244141.3398438.0966797.0673828.1210938.0239258.2734375-.0966797.3408203-.5141602.2861327-1.0351563.4296874-1.5595704.4296874z" fill="#fff"/></g></g></g></g><g><g><g><g><path d="m99.5251083 126.1772461c-.0161133 0-.0327148-.0019531-.0493164-.0048828-1.1425781-.2265625-1.7397461-.9658203-1.7275391-2.1386719.0014648-.1367188.1132813-.2470703.25-.2470703h.0024414c.1381836.0009766.2490234.1142578.2475586.2529297-.0097656.9394531.4111328 1.4609375 1.3251953 1.6425781.1352539.0263672.2231445.1582031.1962891.2939453-.0234375.1191406-.1279296.2011719-.2446289.2011719z" fill="#fff"/></g></g></g><g><g><g><path d="m97.9635849 127.2407227c-.0166016 0-.0327148-.0019531-.0493164-.0048828-1.0288086-.2041016-1.5668945-.8701172-1.5561523-1.9267578.0014648-.1367188.1132813-.2470703.25-.2470703h.0024414c.1381836.0009766.2490234.1142578.2475586.2529297-.0083008.8173828.3583984 1.2724609 1.1538086 1.4306641.1352539.0263672.2231445.1582031.1962891.2939453-.0234376.1191405-.1279298.2011718-.244629.2011718z" fill="#fff"/></g></g></g><g><g><g><path d="m96.4562607 128.2807617c-.0166016 0-.0327148-.0019531-.0493164-.0048828-.9282227-.1845703-1.4135742-.7861328-1.4038086-1.7382813.0014648-.1386719.1049805-.2265625.2524414-.2470703.1381836.0009766.2490234.1142578.2475586.2529297-.0073242.7099609.3110352 1.1044922 1.0014648 1.2421875.1352539.0273438.2231445.1582031.1962891.2939453-.0234375.1191407-.1279297.2011719-.2446289.2011719z" fill="#fff"/></g></g></g></g></g><g><g><g><path d="m133.641449 36.4172401c0 .1300049-.0100098.2600098-.0300293.3900146-.1199951.9200439-.5999756 1.9499512-1.3399658 3.0299072h-3.2200317c.8400269-1.2399902 1.3599854-2.4099121 1.3699951-3.4199219.0400391-4.5900879-12.929985-10.0900879-12.929985-10.0900879s-3.4500122-3.6398926-6.8699951-4.6999512c4.0200195-1.7099609 10.0900269 4.6999512 10.0900269 4.6999512s12.9699629 5.5000002 12.9299849 10.090088z" fill="#f5c9c6"/></g></g></g></g><g><g><path d="m121.0314102 78.0272217c-.0199585 1.25-2.1199951 1.9799805-5.0299683 2.3199463-.25-2.4899902-.6300049-6.4499512-.6300049-7.9199219 0-2.1700439 1.1300049-4.2099609 1.1300049-6.9200439 0-2.7099571-1.0499878-5.8299522-.7200317-8.6199913.3300171-2.7900391 2.7600098-4.8000488 2.7600098-4.8000488s-.2199707 4.880127-.5 7.9200439c-.459961 5.089962 3.0700073 13.8900108 2.9899902 18.0200157z" fill="#72d561"/></g></g></g><g><g><g><path d="m40.5391655 83.133316c0 .0882645-.0266838.1785889-.0800514.2688904-.0513115.0882416-.1190376.1559906-.1949768.2011414l-2.4363251 1.4059601c-.0821037.047226-.1498413.0554199-.2052498.0246277-.057476-.0307693-.0841599-.0944061-.0841599-.1888123l-.0123138-4.2384567c0-.0944061.0266838-.1888123.0821037-.2873306.0554123-.0985184.1231461-.170372.2052536-.2175751l2.4363213-1.4079895c.075943-.0431213.1436768-.0513153.1970329-.020546.0533676.0307922.0800514.0902939.0800514.178566.0020523.0882645-.0266838.178566-.0800514.2688675-.0513153.0882645-.1190376.1580429-.1949806.2011642l-2.1428146 1.2376404.004097 1.5106659 1.925251-1.1104126c.075943-.0451736.1416245-.0533676.1949921-.0225754.0533638.0307693.0821037.0903015.0821037.178566 0 .0882721-.0266838.178566-.0821037.2668152-.0513153.0903168-.1190491.1580429-.1949921.2031937l-1.9231949 1.1104355.0041084 1.518837 2.1428146-1.2376709c.075943-.0451431.1436768-.0533676.1949921-.0225754.0554085.0307922.0820923.0903243.0820923.1785735z" fill="#4c5c75"/></g></g><g><g><path d="m44.7793846 77.5166092c-.0012054-.4276657-.1424141-.6960526-.4209747-.7976761-.2785606-.1031265-.6982841.0064926-1.251297.3257675l-1.4165955.817894c-.079937.0461502-.1493034.1193619-.2041626.2173996-.0548439.0980453-.0821419.1937561-.0818787.2871094l.0121269 4.2749786c.0002632.0918503.0279999.1557922.0832214.1872406.0552216.0314941.1247711.024498.2047119-.0216522.0812378-.0468979.1506042-.1201401.2080803-.2166748.0574875-.0965347.0860901-.1930008.0858269-.2848206l-.0045471-1.6036987 1.2436142-.7180252c.2738914-.1581192.4811554-.2008667.6165657-.1267014.1354103.0741348.2224007.2004166.2583427.3741913.0372314.1745834.0561981.3793335.0568504.6097412l.0006027.2108154c.0002632.0963593.0280113.1617813.0806122.1917648.053894.0306931.1260643.0207214.2138557-.0299606.0812569-.0469055.1493034-.1193848.2054787-.2151718.0548553-.0950089.0821533-.1907196.0818901-.2825699l-.0009117-.3222351c-.0009041-.3162155-.0555611-.613472-.1639481-.8797073-.1044159-.2564392-.2950249-.3545532-.5678864-.2950439.2408409-.2431107.4277649-.5154572.5568733-.8101807.1356357-.3105774.2043498-.6111908.2035487-.8927841zm-2.7872925 2.5503998-.0049362-1.7407227 1.0549164-.6090622c.4206581-.2428818.722271-.3415756.8956757-.2953949.1707649.046196.2591705.2078552.2599335.4788971.0008011.2815704-.0994797.5611801-.2995338.8320313-.2000618.2708664-.4763451.508812-.8209991.7078018z" fill="#4c5c75"/></g></g><g><g><path d="m49.1078224 75.017601c-.0012169-.4276657-.1437416-.6953049-.4222908-.7969284-.2772598-.1038513-.6982956.0064926-1.2499924.3250198l-1.4165992.8178635c-.0812531.0469055-.1492996.1193924-.2041473.2174301-.0548553.0980148-.0834579.1944809-.0831947.2878342l.0121269 4.2750092c.0002518.0918503.0293159.155014.0845375.1864777.0552063.0314713.1247597.0245056.2046967-.0216446.0812531-.0469055.1506081-.1201401.2080956-.2166748.05616-.0957565.0860748-.1930008.0858116-.2848282l-.0045319-1.603714 1.2436142-.7180252c.2738914-.1581039.4811554-.2008438.6165657-.1266785.1353989.0741348.2223892.200386.2583313.3742218.0372429.1745529.0561981.3792801.0568504.6096878l.0005989.2108078c.0002785.0963593.0267105.1625595.080616.1917725.0539055.0307159.1247482.0214996.2138557-.0299683.0812531-.0468979.1493034-.1193619.204174-.2143936.05616-.095787.0834579-.1914673.0831947-.2833176l-.0009155-.3222351c-.0008888-.316246-.0568619-.6127472-.1652489-.8789825-.1031151-.257164-.2937202-.355278-.5665703-.2957993.2408295-.2430801.4277534-.5154266.5568619-.810173.1356354-.3105851.2043496-.6111909.2035599-.8927613zm-2.7872925 2.5503998-.0049362-1.7407227 1.0549126-.6090851c.4206505-.242836.7209587-.3407974.894352-.2946243.1720772.0454483.259182.2078323.2599449.4788742.0008011.2815933-.0994797.5612106-.2982292.8312988-.2000618.270874-.4763451.5087967-.8209877.7077789z" fill="#4c5c75"/></g></g><g><g><path d="m53.0751534 71.5445557c-.3190613-.0314713-.6967773.0779953-1.1226768.3238831-.4272003.2466431-.8056183.5737305-1.1260719.9744415-.3204536.3991699-.5699005.8448486-.7444191 1.3242035-.1732178.4785538-.2650223.9719849-.2714958 1.4659195.0092583.4848633.1035385.8708344.2789001 1.14814.1766739.2765884.4278259.4332275.7494926.4632187.3216705.0284348.7007027-.0802994 1.1279144-.3269424.4258957-.2458878.8029976-.5737076 1.1208344-.9713821.3191376-.3999252.5698891-.8463593.7444077-1.3287125.1758385-.4816132.26894-.9757919.2754288-1.4651718-.0092316-.4803543-.1048279-.8640671-.2828178-1.1414032-.1766779-.2795641-.4291422-.4369814-.7494966-.4661943zm-1.9521599 4.9822311c-.2337265-.0309448-.4152107-.1539154-.5405121-.3666534-.1239967-.2134705-.1878242-.5039291-.188839-.8638229-.0010147-.3583832.0609589-.7214584.183342-1.0771637.1236839-.3564835.3038673-.6897888.5366631-.9885712.2341042-.3010864.5156212-.5480728.8406067-.7357101.3197517-.1846085.6017342-.2629547.8380928-.2335129.2350388.0287094.4178391.1524353.5431404.3651505s.1891289.5031509.1901436.8615646c.0010147.3598938-.0609589.7214584-.1846428 1.0794449-.1236839.3564835-.3051949.6890106-.539299.9900742-.2354164.3018341-.516922.5473251-.8366737.7319336-.3250009.1876296-.6069795.2674559-.842022.2372664z" fill="#4c5c75"/></g></g><g><g><path d="m58.1788788 71.667244c-.1044159-.2564087-.2950211-.3545227-.5665665-.2957993.2395134-.2423325.4264488-.514679.5555573-.8094254.1356354-.3105774.2043457-.6111908.2035599-.8927612-.0012169-.4276886-.1424255-.6960754-.4209862-.797699-.2785645-.103096-.6982956.0065155-1.251297.3257675l-1.4152946.8171463c-.0812531.0468979-.1506042.1201096-.2054634.2181778-.0548439.0980148-.0821419.1937256-.0818787.2870789l.0121269 4.2750092c.0002632.0918274.0279961.1557617.0832176.187233s.1247749.0245056.2060165-.0223999c.079937-.0461731.1493034-.1194077.2067795-.2159195.057476-.0965424.0860863-.1930008.0858231-.2848511l-.0045471-1.6036987 1.243618-.7180252c.2738876-.1580963.4824715-.2016144.6165657-.1266785.1354103.0741425.2224007.2003937.2596436.3734436.0359306.1753387.0548973.3800583.0555496.610466l.0005989.2108154c.0002632.0963593.0280113.1618042.0806046.1917725.0539055.0307159.1260757.0207443.2151833-.0307236.079937-.0461502.1492882-.1193848.2041588-.2144165.0548592-.0950089.0821457-.1907196.0818939-.282547l-.0009155-.322258c-.0009004-.3162155-.0555574-.613472-.1639482-.8797073zm-2.5947571.5524139-.0049362-1.7407227 1.0549164-.6090851c.4206619-.2428589.7222862-.3415451.895668-.2953949.1720772.0454483.2591782.2078552.2599449.4788971.0008011.2815704-.0994835.5611801-.2982292.8312988-.2013702.2716217-.4776497.5095444-.8209915.7077789z" fill="#4c5c75"/></g></g></g></g></g></svg>