<svg id="Capa_1" enable-background="new 0 0 512 512" height="512" viewBox="0 0 512 512" width="512" xmlns="http://www.w3.org/2000/svg"><g><g><g><path d="m267 11c-135.31 0-245 109.69-245 245 0 46.08 12.731 89.183 34.854 126l1.146 1h418l1.146-1c22.123-36.817 34.854-79.92 34.854-126 0-135.31-109.69-245-245-245z" fill="#596c76"/></g><path d="m111.148 304.135 1.639-1.695h-3.442c-13.472 0-24.432-10.96-24.432-24.432 0-6.767 2.71-13.063 7.631-17.728l1.821-1.726h-10.84c-8.629 0-16.222-4.501-20.57-11.275l-27.793 48.879c-.758 1.333.205 2.989 1.739 2.989h44.023c1.528 0 2.491 1.644 1.745 2.977l-44.142 78.879c-1.142 2.041 1.547 4.047 3.178 2.372l62.667-64.355c.473-5.585 2.835-10.808 6.776-14.885z" fill="#fee903"/><g fill="#f4d902"><path d="m52.162 296.159 22.363-39.329c-4.782-1.902-8.823-5.27-11.57-9.549l-27.793 48.879c-.758 1.333.205 2.989 1.739 2.989h17c-1.534-.001-2.497-1.656-1.739-2.99z"/><path d="m97.121 299.148h-16.197c1.528 0 2.491 1.644 1.745 2.977l-44.142 78.879c-1.142 2.041 1.547 4.047 3.178 2.372l29.377-30.169 28.587-51.083c.299-.535.314-1.116.136-1.625-.926-.394-1.82-.849-2.684-1.351z"/></g><g><path d="m23.44 78.148c.658-.053 1.32-.088 1.991-.088h264.137c.671 0 1.334.035 1.991.088 5.589-4.665 9.146-11.681 9.146-19.53 0-14.045-11.386-25.432-25.431-25.432h-235.549c-14.045 0-25.432 11.386-25.432 25.432.001 7.849 3.559 14.865 9.147 19.53z" fill="#a8d3d8"/><g fill="#8ebac5"><path d="m48 58.618c0-14.045 11.386-25.432 25.432-25.432h-33.707c-14.045 0-25.432 11.386-25.432 25.432 0 7.849 3.558 14.865 9.146 19.53.658-.053 1.32-.088 1.991-.088h31.615c-5.528-4.665-9.045-11.641-9.045-19.442z"/><path d="m289.568 78.06c.671 0 1.334.035 1.991.088.034-.028.066-.059.1-.088z"/></g><g><path d="m165.28 383 18.259-37.459h-52.078l18.259 37.459z" fill="#8ebac5"/><path d="m148 345.541h-16.539l18.259 37.459h15.56l.489-1.005z" fill="#7ca1b1"/><path d="m203.553 302.44h-92.105c-5.022 4.646-8.169 11.289-8.169 18.669 0 14.045 11.386 25.432 25.432 25.432h57.58c14.045 0 25.432-11.386 25.432-25.432-.002-7.38-3.149-14.023-8.17-18.669z" fill="#7ca1b1"/><path d="m137 321.109c0-7.38 3.147-14.023 8.169-18.669h-33.721c-5.022 4.646-8.169 11.289-8.169 18.669 0 14.045 11.386 25.432 25.432 25.432h33.721c-14.046 0-25.432-11.386-25.432-25.432z" fill="#678d98"/><path d="m222.029 258.555h-129.058c-5.536 4.665-9.057 11.646-9.057 19.453 0 14.045 11.386 25.432 25.432 25.432h96.309c14.045 0 25.431-11.386 25.431-25.432 0-7.806-3.521-14.788-9.057-19.453z" fill="#678d98"/><path d="m117.828 278.008c0-7.807 3.521-14.788 9.057-19.453h-33.914c-5.536 4.665-9.057 11.646-9.057 19.453 0 14.045 11.386 25.432 25.432 25.432h33.914c-14.046 0-25.432-11.386-25.432-25.432z" fill="#537983"/><path d="m247.861 214.682h-180.722c-5.529 4.665-9.044 11.641-9.044 19.442 0 14.045 11.386 25.432 25.431 25.432h147.948c14.045 0 25.432-11.386 25.432-25.432 0-7.801-3.516-14.777-9.045-19.442z" fill="#7ca1b1"/><path d="m92 234.124c0-7.801 3.515-14.777 9.044-19.442h-33.905c-5.529 4.665-9.044 11.641-9.044 19.442 0 14.045 11.386 25.432 25.431 25.432h33.906c-14.046-.001-25.432-11.387-25.432-25.432z" fill="#678d98"/></g><path d="m267.666 171.188h-220.332c-5.275 4.66-8.605 11.47-8.605 19.061 0 14.045 11.386 25.432 25.431 25.432h186.678c14.045 0 25.432-11.386 25.432-25.432.001-7.591-3.33-14.401-8.604-19.061z" fill="#678d98"/><path d="m72.459 190.25c0-7.592 3.33-14.402 8.605-19.061h-33.73c-5.275 4.66-8.605 11.47-8.605 19.061 0 14.045 11.386 25.432 25.431 25.432h33.729c-14.044-.001-25.43-11.387-25.43-25.432z" fill="#537983"/><path d="m286.113 126.923h-257.226c-5.803 4.661-9.522 11.812-9.522 19.834 0 14.045 11.386 25.432 25.432 25.432h225.407c14.045 0 25.432-11.386 25.432-25.432-.001-8.023-3.719-15.173-9.523-19.834z" fill="#7ca1b1"/><path d="m53 146.757c0-8.023 3.719-15.173 9.522-19.834h-33.635c-5.803 4.661-9.522 11.812-9.522 19.834 0 14.045 11.386 25.432 25.432 25.432h33.635c-14.046 0-25.432-11.387-25.432-25.432z" fill="#678d98"/><path d="m289.568 127.923h-264.136c-14.046 0-25.432-11.386-25.432-25.432 0-14.045 11.386-25.431 25.432-25.431h264.137c14.045 0 25.432 11.386 25.432 25.432-.001 14.045-11.387 25.431-25.433 25.431z" fill="#8ebac5"/><path d="m33 102.491c0-14.045 11.386-25.431 25.432-25.431h-33c-14.046 0-25.432 11.386-25.432 25.431 0 14.045 11.386 25.432 25.432 25.432h33c-14.046 0-25.432-11.386-25.432-25.432z" fill="#7ca1b1"/></g><g><path d="m267 501c89.229 0 167.308-47.707 210.146-119h-420.292c42.838 71.293 120.917 119 210.146 119z" fill="#0bb494"/></g><path d="m432.5 426h-231c-4.142 0-7.5-3.358-7.5-7.5 0-4.142 3.358-7.5 7.5-7.5h231c4.142 0 7.5 3.358 7.5 7.5 0 4.142-3.358 7.5-7.5 7.5z" fill="#00a887"/></g><g><g><path d="m487.5 291.151c0-13.738-10.583-24.997-24.04-26.087 2.63-4.082 4.161-8.938 4.161-14.155 0-14.46-11.722-26.182-26.182-26.182-3.846 0-7.495.836-10.784 2.326-4.391-8.302-13.11-13.962-23.155-13.962s-18.764 5.66-23.155 13.962c-3.29-1.49-6.938-2.326-10.784-2.326-14.46 0-26.182 11.722-26.182 26.182 0 5.217 1.532 10.073 4.162 14.155-13.457 1.091-24.04 12.349-24.04 26.087 0 5.091 1.47 9.83 3.985 13.849h27.632c2.381 0 4.708.969 6.387 2.659l41.435 41.731c.436.439.273.944.213 1.089s-.305.616-.923.616h-4.949v8.16c1.994.486 4.077.745 6.22.745 8.645 0 16.309-4.192 21.077-10.653 3.8 2.148 8.186 3.38 12.862 3.38 14.46 0 26.182-11.722 26.182-26.182 0-3.391-.652-6.628-1.825-9.601 12.324-2.125 21.703-12.86 21.703-25.793z" fill="#0bb494"/><g><path d="m407.5 213.091c-10.045 0-18.764 5.66-23.155 13.962-3.925-1.777-8.361-2.624-13.034-2.231-12.49 1.052-22.634 11.073-23.812 23.552-.583 6.175.99 11.953 4.042 16.69-13.457 1.091-24.04 12.349-24.04 26.087 0 5.091 1.47 9.83 3.985 13.849h13.822c-.186-1.258-.306-2.538-.306-3.849 0-11.665 7.63-21.543 18.172-24.926 2.722-.873 4.215-3.776 3.246-6.465-1.263-3.508-1.799-7.363-1.419-11.387 1.178-12.479 11.322-22.5 23.812-23.552 4.673-.394 9.109.453 13.034 2.231 4.391-8.302 13.11-13.962 23.155-13.962 1.092 0 2.165.079 3.222.209-4.789-6.202-12.283-10.208-20.724-10.208z" fill="#00a887"/></g><path d="m436.297 278c-3.249-3.249-8.518-3.249-11.767 0l-8.625 8.625v-17.845c0-4.595-3.725-8.321-8.321-8.321-4.595 0-8.321 3.725-8.321 8.321v32.686l-6.324-6.466c-3.249-3.249-8.518-3.249-11.767 0s-3.249 8.657 0 11.907l18.093 18.093v16.661l7.674 7.729c.436.439.273.944.213 1.089s-.305.616-.923.616h-4.949v50.905h14.626v-91.841l20.392-20.392c3.249-3.249 3.249-8.518-.001-11.767z" fill="#bb5d4c"/><path d="m399.265 325v16.661l7.674 7.729c.436.439.273.944.213 1.089s-.305.616-.923.616h-4.949v50.905h6.25v-133.22c0-3.09 1.688-5.78 4.188-7.215-1.219-.7-2.627-1.106-4.133-1.106-4.595 0-8.321 3.725-8.321 8.321v32.686l-6.325-6.466c-3.249-3.249-8.518-3.249-11.767 0s-3.249 8.657 0 11.907z" fill="#a44f3e"/><path d="m419 401h-17.72v16h23.72c2.209 0 4-1.791 4-4v-2c0-5.523-4.477-10-10-10z" fill="#f99675"/></g><g><path d="m310.855 351.094v65.906h91.425v-64.906l-1.145-1z" fill="#fff3de"/><path d="m359.117 304h-92.74c-1.231 0-2.419.454-3.336 1.276l-48.371 43.329c-1.367 1.225-.501 3.49 1.334 3.49h190.225c1.778 0 2.672-2.147 1.419-3.409l-41.435-41.731c-1.877-1.892-4.432-2.955-7.096-2.955z" fill="#fea613"/><path d="m269.076 314.724c-1.13-.988-2.817-.988-3.947 0l-42.779 37.37v64.906h28.622l1-1v-50c0-.551.449-1 1-1h28.262c.551 0 1 .449 1 1v50.02l1 .98h28.622v-64.906z" fill="#fff"/><path d="m236.747 354.858 39.136-34.187-6.807-5.946c-1.13-.988-2.817-.988-3.947 0l-42.779 37.37v64.905h14.398v-62.142z" fill="#fff3de"/><path d="m283.234 417v-51c0-1.104-.895-2-2-2h-28.263c-1.105 0-2 .896-2 2v51z" fill="#f68157"/><path d="m265 364h-12.029c-1.105 0-2 .896-2 2v51h12.029v-51c0-1.104.895-2 2-2z" fill="#f26b38"/></g><g><g><path d="m332.28 366v36.094c0 1.105.895 2 2 2h21c1.105 0 2-.895 2-2v-36.094c0-1.105-.895-2-2-2h-21c-1.105 0-2 .895-2 2z" fill="#c8effe"/><path d="m341 402.094v-36.094c0-1.104.895-2 2-2h-8.72c-1.105 0-2 .896-2 2v36.094c0 1.104.895 2 2 2h8.72c-1.105 0-2-.895-2-2z" fill="#99e6fc"/><path d="m365.28 366v36.094c0 1.105.895 2 2 2h21c1.105 0 2-.895 2-2v-36.094c0-1.105-.895-2-2-2h-21c-1.105 0-2 .895-2 2z" fill="#c8effe"/><path d="m374 402.094v-36.094c0-1.104.895-2 2-2h-8.72c-1.105 0-2 .896-2 2v36.094c0 1.104.895 2 2 2h8.72c-1.105 0-2-.895-2-2z" fill="#99e6fc"/></g></g></g><path d="m136.939 110.197 7.864-7.864c2.929-2.929 2.929-7.678 0-10.606-2.929-2.929-7.678-2.929-10.606 0l-7.864 7.864c-2.929 2.929-2.929 7.678 0 10.606 1.464 1.464 3.384 2.197 5.303 2.197s3.839-.732 5.303-2.197z" fill="#fff"/><path d="m86.637 160.5 7.864-7.864c2.929-2.929 2.929-7.678 0-10.606-2.929-2.929-7.678-2.929-10.606 0l-7.864 7.864c-2.929 2.929-2.929 7.678 0 10.606 1.464 1.464 3.384 2.197 5.303 2.197s3.838-.733 5.303-2.197z" fill="#fff"/><g fill="#fff"><path d="m347.463 189.144c2.929-2.929 2.929-7.678 0-10.606-2.929-2.929-7.678-2.929-10.606 0l-7.864 7.864c-2.929 2.929-2.929 7.678 0 10.606 1.464 1.464 3.384 2.197 5.303 2.197s3.839-.732 5.303-2.197z"/><path d="m298.44 216.954-4.243 4.243c-2.929 2.929-2.929 7.678 0 10.606 1.464 1.464 3.384 2.197 5.303 2.197s3.839-.732 5.303-2.197l4.243-4.243c2.929-2.929 2.929-7.678 0-10.606-2.929-2.929-7.678-2.929-10.606 0z"/><path d="m207.697 272.697-7.864 7.864c-2.929 2.929-2.929 7.678 0 10.606 1.464 1.464 3.384 2.197 5.303 2.197s3.839-.732 5.303-2.197l7.864-7.864c2.929-2.929 2.929-7.678 0-10.606-2.929-2.929-7.678-2.929-10.606 0z"/><path d="m166.197 314.197-7.864 7.864c-2.929 2.929-2.929 7.678 0 10.606 1.464 1.464 3.384 2.197 5.303 2.197s3.839-.732 5.303-2.197l7.864-7.864c2.929-2.929 2.929-7.678 0-10.606-2.929-2.929-7.678-2.929-10.606 0z"/><path d="m458.667 180.333c-2.929-2.929-7.678-2.929-10.606 0l-7.864 7.864c-2.929 2.929-2.929 7.678 0 10.606 1.464 1.464 3.384 2.197 5.303 2.197s3.839-.732 5.303-2.197l7.864-7.864c2.929-2.929 2.929-7.678 0-10.606z"/><path d="m398.697 229.697-7.864 7.864c-2.929 2.929-2.929 7.678 0 10.606 1.464 1.464 3.384 2.197 5.303 2.197s3.839-.732 5.303-2.197l7.864-7.864c2.929-2.929 2.929-7.678 0-10.606-2.929-2.929-7.678-2.929-10.606 0z"/></g><g fill="#00a887"><path d="m290.643 474h-27.143c-4.142 0-7.5-3.358-7.5-7.5 0-4.142 3.358-7.5 7.5-7.5h27.143c4.142 0 7.5 3.358 7.5 7.5 0 4.142-3.358 7.5-7.5 7.5z"/><path d="m364 449.5c0-4.142-3.358-7.5-7.5-7.5h-15c-4.142 0-7.5 3.358-7.5 7.5s3.358 7.5 7.5 7.5h15c4.142 0 7.5-3.358 7.5-7.5z"/><path d="m144 405.5c0-4.142-3.358-7.5-7.5-7.5h-15c-4.142 0-7.5 3.358-7.5 7.5s3.358 7.5 7.5 7.5h15c4.142 0 7.5-3.358 7.5-7.5z"/><path d="m196 447.5c0-4.142-3.358-7.5-7.5-7.5h-15c-4.142 0-7.5 3.358-7.5 7.5s3.358 7.5 7.5 7.5h15c4.142 0 7.5-3.358 7.5-7.5z"/></g><g fill="#fff"><path d="m138.197 187.197-4.243 4.243c-2.929 2.929-2.929 7.678 0 10.606 1.464 1.464 3.384 2.197 5.303 2.197s3.839-.732 5.303-2.197l4.243-4.243c2.929-2.929 2.929-7.678 0-10.606-2.929-2.929-7.678-2.929-10.606 0z"/><path d="m287.799 91.13-8.169 8.169c-2.929 2.929-2.929 7.678 0 10.606 1.464 1.464 3.384 2.197 5.303 2.197s3.839-.732 5.303-2.197l8.169-8.169c2.929-2.929 2.929-7.678 0-10.606-2.929-2.929-7.678-2.929-10.606 0z"/><path d="m169.197 158.197-8.169 8.169c-2.929 2.929-2.929 7.678 0 10.606 1.464 1.464 3.384 2.197 5.303 2.197s3.839-.732 5.303-2.197l8.169-8.169c2.929-2.929 2.929-7.678 0-10.606-2.929-2.929-7.678-2.929-10.606 0z"/><path d="m323.197 55.732-8.169 8.169c-2.929 2.929-2.929 7.678 0 10.606 1.464 1.464 3.384 2.197 5.303 2.197s3.839-.732 5.303-2.197l8.169-8.169c2.929-2.929 2.929-7.678 0-10.606-2.929-2.929-7.678-2.929-10.606 0z"/></g><path d="m446.985 71.108h-40.946c-1.486 0-2.453-1.562-1.79-2.892l27.021-54.23c.663-1.33-.305-2.892-1.79-2.892h-28.951c-.746 0-1.43.415-1.774 1.077l-41.62 80.021c-.692 1.331.274 2.923 1.774 2.923h34.288c1.528 0 2.491 1.644 1.745 2.977l-33.806 60.41c-1.142 2.041 1.547 4.047 3.178 2.372l84.105-86.37c1.233-1.268.335-3.396-1.434-3.396z" fill="#fee903"/><g fill="#f4d902"><path d="m373.228 92.192 41.62-80.021c.344-.662 1.028-1.077 1.774-1.077h-16.094c-.746 0-1.43.415-1.774 1.077l-41.62 80.021c-.693 1.331.274 2.923 1.774 2.923h16.094c-1.5 0-2.466-1.591-1.774-2.923z"/><path d="m411.035 98.092c.746-1.333-.218-2.977-1.745-2.977h-16.094c1.528 0 2.491 1.644 1.745 2.977l-33.806 60.41c-1.142 2.041 1.547 4.047 3.178 2.372l27.247-27.981z"/></g></g></svg>