<svg width="48" height="49" viewBox="0 0 48 49" fill="none" xmlns="http://www.w3.org/2000/svg">
<path d="M13.7998 39.6426V20.2426H17.2998V11.1426H34.6998V20.2426H38.2998C39.5331 20.2426 40.5748 20.6676 41.4248 21.5176C42.2748 22.3676 42.6998 23.4092 42.6998 24.6426V39.6426H13.7998ZM8.9498 41.6426C9.9498 41.6426 10.7998 41.2926 11.4998 40.5926C12.1998 39.8926 12.5498 39.0259 12.5498 37.9926V21.8426C12.5498 20.8426 12.1998 19.9926 11.4998 19.2926C10.7998 18.5926 9.93314 18.2426 8.8998 18.2426C7.8998 18.2426 7.0498 18.5926 6.3498 19.2926C5.6498 19.9926 5.2998 20.8426 5.2998 21.8426V37.9926C5.2998 39.0259 5.6498 39.8926 6.3498 40.5926C7.0498 41.2926 7.91647 41.6426 8.9498 41.6426ZM18.3998 20.2426H33.5998V12.2426H18.3998V20.2426ZM30.3498 28.9426C30.9165 28.9426 31.3915 28.7509 31.7748 28.3676C32.1581 27.9842 32.3498 27.5092 32.3498 26.9426C32.3498 26.3759 32.1581 25.9009 31.7748 25.5176C31.3915 25.1342 30.9165 24.9426 30.3498 24.9426C29.7831 24.9426 29.3081 25.1342 28.9248 25.5176C28.5415 25.9009 28.3498 26.3759 28.3498 26.9426C28.3498 27.5092 28.5415 27.9842 28.9248 28.3676C29.3081 28.7509 29.7831 28.9426 30.3498 28.9426ZM36.3498 28.9426C36.9165 28.9426 37.3915 28.7509 37.7748 28.3676C38.1581 27.9842 38.3498 27.5092 38.3498 26.9426C38.3498 26.3759 38.1581 25.9009 37.7748 25.5176C37.3915 25.1342 36.9165 24.9426 36.3498 24.9426C35.7831 24.9426 35.3081 25.1342 34.9248 25.5176C34.5415 25.9009 34.3498 26.3759 34.3498 26.9426C34.3498 27.5092 34.5415 27.9842 34.9248 28.3676C35.3081 28.7509 35.7831 28.9426 36.3498 28.9426ZM30.3498 34.9426C30.9165 34.9426 31.3915 34.7509 31.7748 34.3676C32.1581 33.9842 32.3498 33.5092 32.3498 32.9426C32.3498 32.3759 32.1581 31.9009 31.7748 31.5176C31.3915 31.1342 30.9165 30.9426 30.3498 30.9426C29.7831 30.9426 29.3081 31.1342 28.9248 31.5176C28.5415 31.9009 28.3498 32.3759 28.3498 32.9426C28.3498 33.5092 28.5415 33.9842 28.9248 34.3676C29.3081 34.7509 29.7831 34.9426 30.3498 34.9426ZM36.3498 34.9426C36.9165 34.9426 37.3915 34.7509 37.7748 34.3676C38.1581 33.9842 38.3498 33.5092 38.3498 32.9426C38.3498 32.3759 38.1581 31.9009 37.7748 31.5176C37.3915 31.1342 36.9165 30.9426 36.3498 30.9426C35.7831 30.9426 35.3081 31.1342 34.9248 31.5176C34.5415 31.9009 34.3498 32.3759 34.3498 32.9426C34.3498 33.5092 34.5415 33.9842 34.9248 34.3676C35.3081 34.7509 35.7831 34.9426 36.3498 34.9426ZM18.6498 34.9426H26.3498V24.9426H18.6498V34.9426Z" fill="#333333"/>
</svg>
