<svg id="Layer_1" enable-background="new 0 0 512 512" height="512" viewBox="0 0 512 512" width="512" xmlns="http://www.w3.org/2000/svg"><g><g fill="#dddadf"><path d="m74.52 87.684c-8.285 0-15.001 6.716-15.001 15.001v57.003c0 8.285 6.716 15.001 15.001 15.001s15.001-6.716 15.001-15.001v-57.003c0-8.285-6.716-15.001-15.001-15.001z"/><path d="m255.5 87.684c-8.285 0-15.001 6.716-15.001 15.001v57.003c0 8.285 6.716 15.001 15.001 15.001s15.001-6.716 15.001-15.001v-57.003c0-8.285-6.716-15.001-15.001-15.001z"/></g><path d="m444.072 149.563v-20.666c0-20.679-16.823-37.502-37.502-37.502s-37.502 16.823-37.502 37.502v20.666z" fill="#ff1f3d"/><path d="m496.999 146.892-212.103-.205v153.836h227.104v-138.63c0-8.285-6.716-15.001-15.001-15.001z" fill="#c8ffff"/><path d="m463.36 284.118h-36.052l-26.342-39.512c-4.59-6.89-2.73-16.201 4.16-20.801 6.89-4.59 16.211-2.73 20.801 4.16z" fill="#d5d0d5"/><path d="" style="fill:none;stroke:#000;stroke-width:30;stroke-linecap:round;stroke-linejoin:round;stroke-miterlimit:10"/><path d="" style="fill:none;stroke:#000;stroke-width:30;stroke-linecap:round;stroke-linejoin:round;stroke-miterlimit:10"/><path d="m280.106 279.66v146.212l30.999 28.654 49.656.176c4.15 0 8.11-1.72 10.951-4.74 2.83-3.03 4.29-7.101 4.02-11.231-.65-10.02 3.03-19.821 10.111-26.891 6.57-6.571 15.301-10.191 24.591-10.191s18.021 3.62 24.592 10.191c7.08 7.07 10.761 16.871 10.111 26.891-.27 4.131 1.19 8.201 4.02 11.231 2.84 3.02 6.8 4.74 10.951 4.74h36.892c8.281 0 15.001-6.721 15.001-15.001v-160.041z" fill="#e20059"/><path d="" style="fill:none;stroke:#000;stroke-width:30;stroke-linecap:round;stroke-linejoin:round;stroke-miterlimit:10"/><path d="m410.434 501.225c-17.306 0-33.574-6.739-45.809-18.975-11.134-11.133-17.823-25.901-18.834-41.583-1.213-18.62 5.652-36.864 18.834-50.045 12.235-12.236 28.504-18.974 45.809-18.974s33.573 6.739 45.808 18.975c13.182 13.182 20.047 31.426 18.834 50.054-1.014 15.679-7.703 30.443-18.834 41.574-12.234 12.236-28.503 18.974-45.808 18.974z" fill="#2e2e2e"/><path d="m410.434 401.649c-9.292 0-18.025 3.618-24.595 10.187-7.077 7.077-10.761 16.878-10.109 26.89.542 8.414 4.132 16.333 10.109 22.309 6.57 6.57 15.304 10.188 24.595 10.188s18.025-3.618 24.594-10.187c5.977-5.977 9.567-13.896 10.109-22.3 0-.003 0-.006 0-.01.652-10.012-3.032-19.813-10.109-26.89-6.569-6.569-15.303-10.187-24.594-10.187z" fill="#eae7ea"/><path d="m379.696 353.029h-30.609c-8.285 0-15.001-6.716-15.001-15.001s6.716-15.001 15.001-15.001h30.609c8.285 0 15.001 6.716 15.001 15.001s-6.716 15.001-15.001 15.001z" fill="#2e2e2e"/><path d="" style="fill:none;stroke:#000;stroke-width:30;stroke-linecap:round;stroke-linejoin:round;stroke-miterlimit:10"/><path d="m311.111 146.713-296.11-.025c-8.285 0-15.001 6.716-15.001 15.001v278.027c0 8.285 6.716 15.001 15.001 15.001h296.11z" fill="#ff4d05"/><g><path d="m96.255 501.225c-17.305 0-33.574-6.739-45.81-18.976-25.259-25.261-25.259-66.363 0-91.623 12.237-12.237 28.506-18.976 45.81-18.976 17.305 0 33.574 6.739 45.81 18.976 25.259 25.261 25.259 66.363 0 91.623-12.236 12.237-28.505 18.976-45.81 18.976z" fill="#454040"/><path d="m96.255 401.651c-9.291 0-18.025 3.618-24.595 10.188-13.563 13.563-13.563 35.632 0 49.196 6.57 6.57 15.305 10.188 24.595 10.188 9.291 0 18.025-3.618 24.595-10.188 13.563-13.564 13.563-35.632 0-49.196-6.57-6.57-15.304-10.188-24.595-10.188z" fill="#f5f4f4"/></g><path d="m311.111 146.713-146.101-.013v308.016h146.101z" fill="#ff1f3d"/><path d="m315.019 87.104h-15.001v-46.327h15.001c8.285 0 15.001-6.716 15.001-15.001s-6.716-15.001-15.001-15.001h-300.018c-8.285 0-15.001 6.716-15.001 15.001s6.716 15.001 15.001 15.001h15.001v46.327h-15.001c-8.285 0-15.001 6.716-15.001 15s6.716 15.001 15.001 15.001h300.018c8.285 0 15.001-6.716 15.001-15.001s-6.717-15-15.001-15zm-45.003 0h-30.002v-46.327h30.002zm-90.005-46.327h30.002v46.327h-30.002zm-30.002 46.327h-30.002v-46.327h30.002zm-90.005-46.327h30.002v46.327h-30.002z" fill="#d5d0d5"/><path d="m315.019 87.104h-15.001v-46.327h15.001c8.285 0 15.001-6.716 15.001-15.001s-6.716-15.001-15.001-15.001h-150.009v106.331h150.009c8.285 0 15.001-6.716 15.001-15.001s-6.717-15.001-15.001-15.001zm-105.007 0h-30.002v-46.327h30.002zm60.004 0h-30.002v-46.327h30.002z" fill="#c6c1c8"/><g><path d="m311.111 146.713-296.11-.025c-8.285 0-15.001 6.716-15.001 15.001v60.004h311.111z" fill="#ff8e00"/></g><path d="m311.111 221.692v-74.979l-146.101-.013v74.992z" fill="#ff4d05"/></g></svg>