<svg width="240" height="240" viewBox="0 0 240 240" fill="none" xmlns="http://www.w3.org/2000/svg">
<path d="M120 240C186.274 240 240 186.274 240 120C240 53.7258 186.274 0 120 0C53.7258 0 0 53.7258 0 120C0 186.274 53.7258 240 120 240Z" fill="#7883EE"/>
<path d="M190.312 70.7373L146.821 114.229L87.8841 55.292L49.6875 93.4886L97.3856 141.187L47.3438 191.228L93.0825 236.967C101.736 238.95 110.745 240 120 240C186.134 240 239.768 186.5 239.995 120.419L190.312 70.7373Z" fill="#4652CA"/>
<path d="M130.273 116.468L120 40.6831L58.1897 84.7615V184.514H120L130.273 116.468Z" fill="white"/>
<path d="M120 40.6831V184.514H181.81V84.7615L120 40.6831Z" fill="#E9EDF5"/>
<path d="M70.7812 108.228V180.884H120L125.127 144.556L120 106.353L70.7812 108.228Z" fill="#E9EDF5"/>
<path d="M169.219 108.228L120 105.884V180.884H169.219V108.228Z" fill="#CDD2E1"/>
<path d="M70.7812 89.478V98.853L120 100.26L125.127 94.1655L120 89.478H70.7812Z" fill="#FCCE36"/>
<path d="M169.219 89.478H120V100.26L169.219 98.853V89.478Z" fill="#FABA35"/>
<path d="M70.7812 98.853V108.228H120L125.127 103.541L120 98.853H70.7812Z" fill="#FABA35"/>
<path d="M120 98.853H169.219V108.228H120V98.853Z" fill="#FF9500"/>
<path d="M89.9817 134.483V142.391H79.4376V134.483H89.9817Z" fill="#E570B3"/>
<path d="M150.103 142.392V134.483H160.647V142.392H150.103Z" fill="#D651A4"/>
<path d="M123.555 131.112L120 116.37H91.1493L85.8083 145.854H120L123.555 131.112Z" fill="#F298C4"/>
<path d="M120 116.37V145.854H154.192L148.851 116.37H120Z" fill="#E570B3"/>
<path d="M122.661 133.442L120 123.408H97.4222L94.4119 143.477H120L122.661 133.442Z" fill="#A6FFE3"/>
<path d="M120 123.408V143.477H145.588L142.578 123.408H120Z" fill="#59EFD2"/>
<path d="M124.66 151.836L120 141.951H88.3152C83.9765 141.951 80.459 145.468 80.459 149.807V161.721H120L124.66 151.836Z" fill="#E570B3"/>
<path d="M120 141.951V161.721H159.541V149.807C159.541 145.468 156.023 141.951 151.685 141.951H120Z" fill="#D651A4"/>
<path d="M142.407 168.172H155.587V181.352H142.407V168.172Z" fill="#764134"/>
<path d="M84.4128 168.172H97.5932V181.352H84.4128V168.172Z" fill="#8E5043"/>
<path d="M124.971 165.412L120 161.458H77.8228V169.366H120L124.971 165.412Z" fill="#A25D50"/>
<path d="M120 161.458H162.177V169.366H120V161.458Z" fill="#8E5043"/>
<path d="M49.6875 70.7372V93.4894L120 42.8381L124.588 33.6291L120 20.0864L49.6875 70.7372Z" fill="#A25D50"/>
<path d="M190.312 70.7372L120 20.0864V42.8381L190.312 93.4894V70.7372Z" fill="#8E5043"/>
<path d="M47.3438 179.51V191.229H120L127.568 185.369L120 179.51H47.3438Z" fill="#A25D50"/>
<path d="M120 179.51H192.656V191.229H120V179.51Z" fill="#8E5043"/>
</svg>
