<svg id="Capa_1" enable-background="new 0 0 501 501" height="512" viewBox="0 0 501 501" width="512" xmlns="http://www.w3.org/2000/svg"><g><path d="m116.118 400c-41.829 0-79.24-26.546-92.512-66.214-8.176-24.439-12.606-50.595-12.606-77.786 0-59.198 20.995-113.492 55.946-155.843 1.485-1.8 6.894-1.651 8.429-3.407 6.729-7.697 13.931-14.969 21.561-21.771 1.154-1.029-1.581-3.973-.407-4.98 42.855-36.777 98.567-58.999 159.468-59 135.701-.002 245.62 110.443 245.001 246.143-.205 44.805-12.436 86.768-33.632 122.828-7.268 12.364-20.465 20.03-34.806 20.03z" fill="#63bcfa"/><path d="m474 273.333h-120c-8.284 0-15-6.716-15-15 0-8.284 6.716-15 15-15h120c8.284 0 15 6.716 15 15 0 8.285-6.716 15-15 15zm-25 41.667c0-8.284-6.716-15-15-15h-120c-8.284 0-15 6.716-15 15 0 8.284 6.716 15 15 15h120c8.284 0 15-6.716 15-15zm-15 65c-8.525 0-15.389 7.111-14.983 15.725.38 8.068 7.33 14.275 15.407 14.275h6.43c3.651 0 7.098-1.693 9.326-4.584 6.232-8.087 11.97-16.574 17.168-25.416zm-55-325c0 8.284-6.716 15-15 15h-120c-8.284 0-15-6.716-15-15s6.716-15 15-15h120c8.284 0 15 6.716 15 15zm-260 30c0 8.284-6.716 15-15 15h-36.924c8.945-10.821 18.802-20.86 29.453-30h7.471c8.284 0 15 6.716 15 15z" fill="#91cefb"/><path d="m40.236 184.002c-4.71-6.815-3.004-16.158 3.81-20.868l115.894-80.105c6.815-4.71 16.158-3.004 20.868 3.81 4.71 6.815 3.004 16.158-3.81 20.868l-115.894 80.105c-6.815 4.711-16.158 3.005-20.868-3.81z" fill="#bbe0fb"/><path d="m69.481 163.788c-4.71-6.815-3.004-16.158 3.81-20.868l86.648-59.891c6.815-4.71 16.158-3.004 20.868 3.81 4.71 6.815 3.004 16.158-3.81 20.868l-86.648 59.891c-6.815 4.711-16.158 3.005-20.868-3.81z" fill="#e3f0fb"/><path d="m467.5 226c0 24.006-6.733 46.652-18.96 63.771-11.964 16.75-27.848 26.451-45.04 27.611v82.618c0 4.143-3.358 7.5-7.5 7.5s-7.5-3.357-7.5-7.5v-112.514c-42.044-.802-76-35.253-76-77.486 0-4.143 3.358-7.5 7.5-7.5s7.5 3.357 7.5 7.5c0 33.961 27.228 61.683 61 62.482v-42.482c0-4.143 3.358-7.5 7.5-7.5s7.5 3.357 7.5 7.5v72.332c27.323-2.633 49-35.863 49-76.332 0-4.143 3.358-7.5 7.5-7.5s7.5 3.357 7.5 7.5z" fill="#72443b"/><path d="m420.35 97.136c12.323 16.023 19.65 36.088 19.65 57.864 0 52.467-42.533 90-95 90s-95-37.533-95-90c0-31.873 15.697-60.08 39.781-77.313-.076-.941-.115-1.893-.115-2.854 0-19.422 15.745-35.167 35.167-35.167 2.442 0 4.826.249 7.129.723 6.399-23.283 27.721-40.389 53.038-40.389 30.376 0 55 24.624 55 55 0 16.916-7.636 32.047-19.65 42.136z" fill="#017b4e"/><path d="m408.958 5.479c-23.117 4.622-39.97 23.142-43.523 45.179-.391 2.426-2.35 4.342-4.793 4.607-.954.104-1.912.247-2.872.431-19.073 3.662-31.567 22.094-27.905 41.167.002.009.004.019.005.028.332 1.724-.092 3.514-1.264 4.822-19.118 21.341-28.4 51.049-22.581 81.358 5.692 29.647 24.594 53.41 49.435 66.359-3.94.431-7.953.623-12.023.557-51.433-.828-93.216-43.129-93.438-94.568-.138-32.045 15.59-60.423 39.781-77.731-.076-.941-.115-1.893-.115-2.854 0-19.422 15.745-35.167 35.167-35.167 2.442 0 4.826.249 7.129.723 6.4-23.284 27.722-40.39 53.039-40.39 8.588 0 16.716 1.969 23.958 5.479z" fill="#026841"/><path d="m500 175c0 48.463-40.557 87.452-89.582 84.88-44.194-2.319-79.493-38.85-80.4-83.096-.781-38.114 23.531-70.664 57.543-82.257 7.151-2.438 12.614-8.127 15.247-15.208 6.672-17.945 24.465-30.481 45.003-29.233 22.59 1.373 40.844 19.719 42.115 42.315.368 6.545-.664 12.808-2.824 18.517-2.732 7.222-2.098 15.244 1.735 21.947 7.104 12.419 11.163 26.803 11.163 42.135z" fill="#09a66d"/><path d="m201.001 89.184 167.02 113.877v227.755h-283.673c-20.751-20.377-37.889-44.421-50.367-71.081v-156.674z" fill="#f7e6b0"/><path d="m368.022 203.061v45l-167.021-113.877-141.001 96.137v159.679h-9.14c-6.309-9.638-11.957-19.748-16.879-30.265v-156.674l26.019-17.74 141.001-96.137z" fill="#ffdf8e"/><path d="m399.395 224.452c-2.904 4.259-7.614 6.551-12.407 6.551-2.91.001-5.851-.845-8.437-2.607l-177.55-121.057-177.549 121.057c-6.844 4.666-16.176 2.901-20.844-3.943-4.667-6.845-2.901-16.177 3.943-20.844l186-126.818c5.098-3.475 11.803-3.475 16.9 0l186 126.818c6.845 4.666 8.611 13.998 3.944 20.843z" fill="#e43950"/><path d="m399.395 224.452c-2.904 4.259-7.614 6.551-12.407 6.551-2.91.001-5.851-.845-8.437-2.607l-177.55-121.057-113.52 77.4c-5.097 3.475-11.803 3.475-16.9 0-8.733-5.955-8.733-18.833 0-24.787l121.97-83.162c5.098-3.475 11.803-3.475 16.9 0l186 126.818c6.845 4.667 8.611 13.999 3.944 20.844z" fill="#ea5569"/><path d="m316.044 372.5h-66.044c-5.523 0-10-4.477-10-10v-140c0-5.523 4.477-10 10-10h66.044c5.523 0 10 4.477 10 10v140c0 5.523-4.477 10-10 10z" fill="#dca050"/><path d="m260 372.5h-10c-5.523 0-10-4.477-10-10v-140c0-5.523 4.477-10 10-10h10z" fill="#ce9047"/><path d="m191.002 290h-106.044c-5.523 0-10-4.477-10-10v-50c0-5.523 4.477-10 10-10h106.044c5.523 0 10 4.477 10 10v50c0 5.523-4.478 10-10 10z" fill="#4f66cf"/><path d="m196.201 290h-2.6c-5.523 0-10-4.477-10-10v-50c0-5.523 4.477-10 10-10h2.6c5.523 0 10 4.477 10 10v50c0 5.523-4.477 10-10 10zm-28.934-10v-50c0-5.523-4.477-10-10-10h-6.745c-5.523 0-10 4.477-10 10v50c0 5.523 4.477 10 10 10h6.745c5.523 0 10-4.477 10-10z" fill="#6c7fd7"/><path d="m368.022 390h-170v-40c0-5.523 4.477-10 10-10h160z" fill="#fbc56d"/><path d="m230 350v40h-31.978v-40c0-5.523 4.477-10 10-10h31.978c-5.523 0-10 4.477-10 10z" fill="#ebae56"/><path d="m260 265v30c0 2.761-2.239 5-5 5s-5-2.239-5-5v-30c0-2.761 2.239-5 5-5s5 2.239 5 5z" fill="#72443b"/><path d="m193.544 212.5h-106.044c-9.649 0-17.5 7.851-17.5 17.5v50c0 9.649 7.851 17.5 17.5 17.5h106.044c9.649 0 17.5-7.851 17.5-17.5v-50c0-9.649-7.851-17.5-17.5-17.5zm-38.022 15v55h-30v-55zm-70.522 52.5v-50c0-1.379 1.122-2.5 2.5-2.5h23.022v55h-23.022c-1.378 0-2.5-1.121-2.5-2.5zm111.044 0c0 1.379-1.122 2.5-2.5 2.5h-23.022v-55h23.022c1.378 0 2.5 1.121 2.5 2.5z" fill="#925b50"/><path d="m22.376 330.004c73.207-.313 141.026 16.446 196.405 45.137-13.079 17.021-28.343 32.276-45.373 45.344-34.452 26.437-83.985 20.321-110.696-13.92-17.681-22.665-31.463-48.521-40.336-76.561 0 .001 0 .001 0 0z" fill="#026841"/><path d="m218.781 375.142c-6.821 8.877-14.236 17.273-22.187 25.13-29.483 19.979-69.823 18.108-97.239-6.845-19.646-17.882-36.469-39.011-49.552-62.736 62.689 3.418 120.583 19.378 168.978 44.451z" fill="#017b4e"/><path d="m450.391 405.142c-44.787 58.288-115.202 95.858-194.391 95.858s-149.604-37.57-194.391-95.858c54.872-28.428 121.954-45.142 194.391-45.142s139.519 16.714 194.391 45.142z" fill="#6eb368"/><path d="m304.833 362.569c-.537.057-1.073.115-1.609.174-26.405 2.898-44.249 18.088-53.013 37.257h29.789c5.523 0 10 4.477 10 10s-4.477 10-10 10h-35.484c-4.009 30.907 12.228 64.514 50.388 73.907 3.284.809 6.594 1.551 9.929 2.225 58.951-11.924 110.228-45.012 145.557-90.991-42.307-21.918-91.874-36.872-145.557-42.572zm25.167 97.431h-20c-5.523 0-10-4.477-10-10s4.477-10 10-10h20c5.523 0 10 4.477 10 10s-4.477 10-10 10zm30-50h-20c-5.523 0-10-4.477-10-10s4.477-10 10-10h20c5.523 0 10 4.477 10 10s-4.477 10-10 10z" fill="#85be7f"/></g></svg>