<svg id="female" height="512" viewBox="0 0 128 128" width="512" xmlns="http://www.w3.org/2000/svg"><rect fill="#673821" height="92" rx="27" width="54" x="49" y="7"/><path d="m88 80h-24v-8l12-3 12 3z" fill="#373737"/><path d="m76 74c-20.9867 0-38 14.5827-38 32.5714v17.4286h76v-17.4286c0-17.9887-17.0132-32.5714-38-32.5714z" fill="#373737"/><path d="m76 74a43.7311 43.7311 0 0 0 -12 1.6674l3 48.3326h18l3-48.3326a43.7311 43.7311 0 0 0 -12-1.6674z" fill="#fff"/><path d="m68 83.2h16v-16h-16z" fill="#f7b991"/><path d="m82 88-6-5 8-10 4 2.5z" fill="#e6e6e6"/><path d="m70 88 6-5-8-10-4 2.5z" fill="#e6e6e6"/><rect fill="#f7b991" height="12" rx="6" width="15" x="47.5" y="41.25"/><rect fill="#f7b991" height="12" rx="6" transform="matrix(-1 0 0 -1 194 94.5)" width="15" x="89.5" y="41.25"/><path d="m75.9986 22 7.2635 1.981a20 20 0 0 1 14.7379 19.2937v7.3819a21.3418 21.3418 0 0 1 -21.3414 21.3434h-.5522a22.0244 22.0244 0 0 1 -22.1082-22.0021c0-8.4006 0-15.9979 0-15.9979a25.6209 25.6209 0 0 0 19.6822-9.2186z" fill="#fdcba8"/><path d="m58.9127 38.6941a8.4177 8.4177 0 0 1 10.1746 0 1.2388 1.2388 0 0 0 1.5626.0518 1.1267 1.1267 0 0 0 -.3636-1.6314 10.4019 10.4019 0 0 0 -12.5727 0 1.1268 1.1268 0 0 0 -.3635 1.6314 1.2387 1.2387 0 0 0 1.5626-.0518z" fill="#673821"/><path d="m82.9127 38.6941a8.4177 8.4177 0 0 1 10.1746 0 1.2388 1.2388 0 0 0 1.5626.0518 1.1268 1.1268 0 0 0 -.3635-1.6314 10.4021 10.4021 0 0 0 -12.5728 0 1.1268 1.1268 0 0 0 -.3635 1.6314 1.2387 1.2387 0 0 0 1.5626-.0518z" fill="#673821"/><path d="m70 60a6 6 0 0 0 12 0z" fill="#e62626"/><rect fill="#f7b991" height="8" rx="2" transform="matrix(-1 0 0 -1 152 104)" width="4" x="74" y="48"/><circle cx="88" cy="44" fill="#673821" r="3"/><circle cx="64" cy="44" fill="#673821" r="3"/><path d="m85 124h2l11-28-6-7 7-10-11-7z" fill="#464646"/><path d="m67 124h-2l-11-28 6-7-7-10 11-7z" fill="#464646"/><path d="m38 106.5714v17.4286h11v-40.3433c-6.7985 5.885-11 13.9784-11 22.9147z" fill="#373737"/><path d="m103 83.6567v40.3433h11v-17.4286c0-8.9363-4.2015-17.0297-11-22.9147z" fill="#373737"/><path d="m36.5 76h3v46.5h-3z" fill="#fab141"/><path d="m47 101.5h15a0 0 0 0 1 0 0 7.5 7.5 0 0 1 -7.5 7.5 7.5 7.5 0 0 1 -7.5-7.5 0 0 0 0 1 0 0z" fill="#fab141"/><path d="m54.5 88.375-7.5 13.125h2.928l4.572-8 4.572 8h2.928z" fill="#e6e6e6"/><path d="m21.5 88.375-7.5 13.125h2.928l4.572-8 4.572 8h2.928z" fill="#e6e6e6"/><path d="m14 101.5h15a0 0 0 0 1 0 0 7.5 7.5 0 0 1 -7.5 7.5 7.5 7.5 0 0 1 -7.5-7.5 0 0 0 0 1 0 0z" fill="#fab141"/><g fill="#ffd75a"><path d="m62 86.0291a1.5 1.5 0 0 0 -2.1179-1.3668l-1.9968.9028a10.1977 10.1977 0 0 1 -11.0464-1.7051 13.3037 13.3037 0 0 0 -17.6778.0015 10.2015 10.2015 0 0 1 -11.0464 1.7036l-1.9968-.9028a1.5 1.5 0 0 0 -2.1179 1.3668 1.5 1.5 0 0 0 .8821 1.3668l1.9963.9026a13.1974 13.1974 0 0 0 14.2954-2.212 10.2726 10.2726 0 0 1 13.6524-.0014 13.204 13.204 0 0 0 14.2954 2.2134l1.9963-.9026a1.5 1.5 0 0 0 .8821-1.3668z"/><path d="m22.25 121h31.5v3h-31.5z"/></g></svg>