<svg width="230" height="240" viewBox="0 0 230 240" fill="none" xmlns="http://www.w3.org/2000/svg">
<path d="M115 240C178.426 240 229.844 188.583 229.844 125.156C229.844 61.7298 178.426 10.3125 115 10.3125C51.5735 10.3125 0.15625 61.7298 0.15625 125.156C0.15625 188.583 51.5735 240 115 240Z" fill="#85ADDF"/>
<path d="M198.064 0H62.8252C60.2363 0 58.1377 2.09859 58.1377 4.6875V106.119L68.9293 101.326C69.8349 100.924 70.7963 100.72 71.7872 100.72C72.7782 100.72 73.7396 100.924 74.6452 101.326L115.426 119.441C117.967 120.569 119.609 123.095 119.609 125.875V155.578C119.609 161.835 118.867 167.567 117.384 172.839C118.385 173.509 119.327 174.281 120.197 175.15L124.048 179.002L127.899 175.15C131.398 171.652 136.069 169.726 141.051 169.726C146.034 169.726 150.705 171.652 154.203 175.15C158.187 179.133 159.977 184.489 159.584 189.709H198.063C200.652 189.709 202.751 187.611 202.751 185.022V4.6875C202.752 2.09859 200.653 0 198.064 0Z" fill="#EAF6FF"/>
<path d="M68.9297 101.326C69.8353 100.924 70.7968 100.72 71.7877 100.72C72.7786 100.72 73.74 100.924 74.6457 101.326L76.8877 102.322V4.6875C76.8877 2.09859 78.9863 0 81.5752 0H62.8252C60.2363 0 58.1377 2.09859 58.1377 4.6875V106.119L68.9297 101.326Z" fill="#D8ECFE"/>
<path d="M173.82 71.5278H87.0698C85.1283 71.5278 83.5542 69.9542 83.5542 68.0122C83.5542 66.0702 85.1283 64.4966 87.0698 64.4966H173.82C175.761 64.4966 177.335 66.0702 177.335 68.0122C177.335 69.9542 175.762 71.5278 173.82 71.5278Z" fill="#017B4E"/>
<path d="M173.82 85.6504H87.0698C85.1283 85.6504 83.5542 84.0768 83.5542 82.1348C83.5542 80.1927 85.1283 78.6191 87.0698 78.6191H173.82C175.761 78.6191 177.335 80.1927 177.335 82.1348C177.335 84.0768 175.762 85.6504 173.82 85.6504Z" fill="#017B4E"/>
<path d="M173.82 99.7734H87.0698C85.1283 99.7734 83.5542 98.1998 83.5542 96.2578C83.5542 94.3158 85.1283 92.7422 87.0698 92.7422H173.82C175.761 92.7422 177.335 94.3158 177.335 96.2578C177.335 98.1998 175.762 99.7734 173.82 99.7734Z" fill="#017B4E"/>
<path d="M173.82 126H131.251C129.31 126 127.736 124.426 127.736 122.484C127.736 120.542 129.31 118.969 131.251 118.969H173.82C175.761 118.969 177.335 120.542 177.335 122.484C177.335 124.426 175.762 126 173.82 126Z" fill="#09A76D"/>
<path d="M173.82 39.9023H131.251C129.31 39.9023 127.736 38.3288 127.736 36.3867C127.736 34.4447 129.31 32.8711 131.251 32.8711H173.82C175.761 32.8711 177.335 34.4447 177.335 36.3867C177.335 38.3288 175.762 39.9023 173.82 39.9023Z" fill="#09A76D"/>
<path d="M173.82 140.123H131.251C129.31 140.123 127.736 138.549 127.736 136.607C127.736 134.665 129.31 133.091 131.251 133.091H173.82C175.761 133.091 177.335 134.665 177.335 136.607C177.335 138.549 175.762 140.123 173.82 140.123Z" fill="#09A76D"/>
<path d="M173.82 154.245H131.251C129.31 154.245 127.736 152.672 127.736 150.729C127.736 148.787 129.31 147.214 131.251 147.214H173.82C175.761 147.214 177.335 148.787 177.335 150.729C177.335 152.672 175.762 154.245 173.82 154.245Z" fill="#09A76D"/>
<path d="M98.1595 29.8003H92.1773C91.2994 29.8003 90.5854 29.0864 90.5854 28.2084V26.4605C90.5854 25.583 91.2994 24.8686 92.1773 24.8686H102.115C104.056 24.8686 105.63 23.295 105.63 21.353C105.63 19.4109 104.056 17.8373 102.115 17.8373H98.684V17.4844C98.684 15.5423 97.11 13.9688 95.1684 13.9688C93.2269 13.9688 91.6528 15.5423 91.6528 17.4844V17.8641C87.1425 18.1373 83.5542 21.8827 83.5542 26.4605V28.2084C83.5542 32.9634 87.4223 36.8316 92.1773 36.8316H98.1595C99.037 36.8316 99.7514 37.5455 99.7514 38.4234V40.1719C99.7514 41.0494 99.0375 41.7637 98.1595 41.7637H87.9923C86.0508 41.7637 84.4767 43.3373 84.4767 45.2794C84.4767 47.2214 86.0508 48.795 87.9923 48.795H91.6528V49.6612C91.6528 51.6033 93.2269 53.1769 95.1684 53.1769C97.11 53.1769 98.684 51.6033 98.684 49.6612V48.7687C103.194 48.4955 106.783 44.7502 106.783 40.1723V38.4244C106.783 33.6689 102.915 29.8003 98.1595 29.8003Z" fill="#09A76D"/>
<path d="M93.4793 201.017H78.7807C77.1007 201.017 75.7339 199.65 75.7339 197.97C75.7339 196.29 77.1007 194.924 78.7807 194.924H89.6712C87.1526 188.286 88.5565 180.487 93.8937 175.149C97.392 171.652 102.063 169.725 107.046 169.725C110.967 169.725 114.692 170.923 117.807 173.136C119.29 167.91 120.078 162.097 120.078 155.578V125.874C120.078 122.906 118.33 120.217 115.617 119.012L74.8357 100.897C72.8951 100.035 70.6798 100.035 68.7392 100.897L27.9579 119.012C25.2453 120.217 23.4968 122.906 23.4968 125.874V155.578C23.4968 187.203 41.9914 202.212 68.7537 214.088C70.6831 214.944 72.8923 214.944 74.8217 214.088C82.4121 210.72 89.3365 207.098 95.3632 202.919C94.8668 202.424 94.3751 201.933 93.8937 201.453C93.7512 201.311 93.6167 201.163 93.4793 201.017Z" fill="#09A76D"/>
<path d="M83.8542 209.468C55.9153 197.069 36.6075 181.401 36.6075 148.385V117.375C36.6075 116.557 36.7383 115.76 36.9778 115.005L27.9577 119.012C25.245 120.217 23.4966 122.907 23.4966 125.875V155.578C23.4966 187.203 41.9911 202.213 68.7535 214.088C70.6828 214.945 72.8921 214.945 74.8214 214.088C78.0731 212.646 81.2016 211.155 84.1908 209.596C84.0788 209.553 83.9644 209.517 83.8542 209.468Z" fill="#02905D"/>
<path d="M94.8654 145.799H81.7118V132.646C81.7118 131.351 80.6622 130.302 79.368 130.302H64.2054C62.9111 130.302 61.8616 131.351 61.8616 132.646V145.799H48.708C47.4138 145.799 46.3643 146.849 46.3643 148.143V163.306C46.3643 164.6 47.4138 165.649 48.708 165.649H61.8616V178.803C61.8616 180.097 62.9111 181.147 64.2054 181.147H79.368C80.6622 181.147 81.7118 180.097 81.7118 178.803V165.649H94.8654C96.1596 165.649 97.2091 164.6 97.2091 163.306V148.143C97.2091 146.849 96.16 145.799 94.8654 145.799Z" fill="white"/>
<path d="M70.143 175.21C68.8488 175.21 67.7993 174.16 67.7993 172.866V162.056C67.7993 160.762 66.7497 159.712 65.4555 159.712H54.6457C53.3514 159.712 52.3019 158.663 52.3019 157.369V145.799H48.708C47.4138 145.799 46.3643 146.849 46.3643 148.143V163.306C46.3643 164.6 47.4138 165.649 48.708 165.649H61.8616V178.803C61.8616 180.097 62.9111 181.147 64.2054 181.147H79.368C80.6622 181.147 81.7118 180.097 81.7118 178.803V175.209H70.143V175.21Z" fill="#EAF6FF"/>
<path d="M137.35 205.32C136.266 205.32 135.256 204.737 134.713 203.8L130.197 196L123.143 211.625C122.671 212.671 121.665 213.356 120.519 213.414C120.467 213.416 120.416 213.418 120.366 213.418C119.282 213.418 118.271 212.835 117.729 211.896L111.439 201.017H92.8398C93.0733 201.278 93.3137 201.535 93.5645 201.785C104.177 212.372 117.058 225.2 121.914 229.994C122.507 230.579 123.279 230.871 124.051 230.871C124.824 230.871 125.596 230.579 126.188 229.994C130.516 225.722 141.208 215.077 150.994 205.319H137.35V205.32Z" fill="#FB2B3A"/>
<path d="M113.196 194.924C114.28 194.924 115.291 195.507 115.834 196.446L120.032 203.706L127.084 188.085C127.556 187.04 128.561 186.354 129.707 186.296C129.764 186.293 129.82 186.292 129.874 186.292C130.949 186.292 131.954 186.874 132.498 187.812L139.106 199.226H156.677C161.879 191.792 161.169 181.452 154.536 174.819C150.949 171.232 146.161 169.257 141.053 169.257C135.944 169.257 131.156 171.232 127.569 174.819L124.049 178.338L120.529 174.819C116.943 171.232 112.154 169.257 107.046 169.257C101.938 169.257 97.1501 171.232 93.5628 174.819C88.1356 180.246 86.6745 188.155 89.1706 194.924H113.196Z" fill="#FB2B3A"/>
<path d="M103.464 201.018H92.8391C93.0725 201.278 93.313 201.535 93.5638 201.785C104.176 212.372 117.057 225.2 121.913 229.994C122.506 230.579 123.278 230.871 124.05 230.871C124.823 230.871 125.595 230.579 126.187 229.994C127.024 229.168 128.103 228.1 129.363 226.85C123.308 220.843 112.973 210.549 104.189 201.785C103.938 201.535 103.698 201.278 103.464 201.018Z" fill="#E41F2D"/>
<path d="M99.7965 194.924C97.3004 188.155 98.7615 180.246 104.189 174.819C106.493 172.514 109.296 170.879 112.359 170.002C110.656 169.514 108.872 169.257 107.047 169.257C101.939 169.257 97.1508 171.232 93.5635 174.819C88.1363 180.246 86.6752 188.155 89.1713 194.924H99.7965Z" fill="#E41F2D"/>
<path d="M120.365 213.886C119.115 213.886 117.953 213.221 117.322 212.13L111.168 201.486H78.7812C76.8397 201.486 75.2656 199.913 75.2656 197.97C75.2656 196.028 76.8397 194.455 78.7812 194.455H113.196C114.451 194.455 115.611 195.124 116.24 196.211L119.98 202.681L126.657 187.892C127.199 186.691 128.368 185.894 129.684 185.828C131.002 185.756 132.243 186.437 132.904 187.577L139.377 198.757H161.234C163.175 198.757 164.75 200.331 164.75 202.273C164.75 204.215 163.175 205.788 161.234 205.788H137.35C136.096 205.788 134.937 205.12 134.307 204.034L130.249 197.025L123.57 211.818C123.028 213.019 121.858 213.817 120.542 213.882C120.483 213.885 120.424 213.886 120.365 213.886Z" fill="white"/>
</svg>
