<svg width="54" height="54" viewBox="0 0 54 54" fill="none" xmlns="http://www.w3.org/2000/svg">
<path d="M30.3956 12.334L23.4849 19.2447C23.4716 19.258 23.4633 19.2741 23.45 19.2875C25.1524 19.0396 26.9014 19.2096 28.5226 19.8417L33.2129 15.1515C34.7667 13.5976 37.2938 13.5976 38.8477 15.1515C40.4015 16.7052 40.4015 19.2324 38.8477 20.7861C38.5827 21.0512 31.5375 28.0964 31.937 27.6967C30.3709 29.263 27.8015 29.196 26.3023 27.6967C25.5258 26.9202 24.2615 26.9202 23.4849 27.6967L22.2754 28.9063C22.6109 29.4763 22.9955 30.0248 23.4849 30.5142C26.436 33.4653 31.5157 33.7011 34.7116 30.5491C34.725 30.5359 34.741 30.5275 34.7545 30.5142L41.6651 23.6036C44.777 20.4915 44.777 15.4461 41.6651 12.334C38.553 9.22198 33.5077 9.22198 30.3956 12.334Z" fill="#333333"/>
<path d="M25.4915 34.1432L20.7861 38.8486C19.2324 40.4024 16.7052 40.4024 15.1515 38.8486C13.5976 37.2948 13.5976 34.7677 15.1515 33.2138C15.4164 32.9489 22.4768 25.8886 22.0772 26.2881C23.6433 24.722 26.2127 24.7889 27.712 26.2881C28.4884 27.0648 29.7528 27.0648 30.5293 26.2881L31.7388 25.0786C31.4033 24.5086 31.0187 23.9601 30.5293 23.4708C27.5839 20.5252 22.5079 20.2746 19.3026 23.4358C19.2893 23.4491 19.2732 23.4574 19.2598 23.4708L12.334 30.3966C9.22207 33.5085 9.22193 38.554 12.334 41.6661C15.4461 44.778 20.4916 44.778 23.6035 41.6661L30.5292 34.7403C30.5426 34.727 30.5509 34.711 30.5642 34.6974C28.8617 34.9454 27.1128 34.7754 25.4915 34.1432Z" fill="#333333"/>
</svg>
