<svg width="101" height="100" viewBox="0 0 101 100" fill="none" xmlns="http://www.w3.org/2000/svg">
<g clip-path="url(#clip0_111_109)">
<path d="M86.7192 26.0156C83.2038 14.6484 73.9458 5.39043 62.5786 1.875C58.5942 0.644336 54.4927 0 50.5083 0C42.3638 0 34.5124 2.51953 27.9499 7.4416C18.223 14.5898 12.4224 26.0156 12.4224 38.0859C12.4224 46.4061 15.0591 54.3166 20.0396 60.9377L50.5083 100L80.9771 60.9377C88.4183 50.9766 90.5278 38.2619 86.7192 26.0156ZM50.5083 58.5938C39.1997 58.5938 30.0005 49.3945 30.0005 38.0859C30.0005 26.7773 39.1997 17.5781 50.5083 17.5781C61.8169 17.5781 71.0161 26.7773 71.0161 38.0859C71.0161 49.3945 61.8169 58.5938 50.5083 58.5938Z" fill="#E15454"/>
<path d="M80.9771 60.9377L50.5083 100V58.5938C61.8169 58.5938 71.0161 49.3945 71.0161 38.0859C71.0161 26.7773 61.8169 17.5781 50.5083 17.5781V0C54.4927 0 58.5942 0.644531 62.5786 1.875C73.9458 5.39043 83.2038 14.6484 86.7192 26.0156C90.5278 38.2619 88.4183 50.9766 80.9771 60.9377Z" fill="#CF2525"/>
</g>
<defs>
<clipPath id="clip0_111_109">
<rect width="100" height="100" fill="white" transform="translate(0.5)"/>
</clipPath>
</defs>
</svg>
