<svg width="54" height="54" viewBox="0 0 54 54" fill="none" xmlns="http://www.w3.org/2000/svg">
<path d="M10.4623 42.075C9.59981 42.075 8.87793 41.7844 8.29668 41.2031C7.71543 40.6219 7.4248 39.9 7.4248 39.0375V14.9625C7.4248 14.1 7.71543 13.3781 8.29668 12.7969C8.87793 12.2156 9.59981 11.925 10.4623 11.925H43.5373C44.3998 11.925 45.1217 12.2156 45.7029 12.7969C46.2842 13.3781 46.5748 14.1 46.5748 14.9625V39.0375C46.5748 39.9 46.2842 40.6219 45.7029 41.2031C45.1217 41.7844 44.3998 42.075 43.5373 42.075H10.4623ZM26.9998 26.2687L45.3373 13.95L44.4373 13.1625L26.9998 24.6937L9.5623 13.1625L8.6623 13.95L26.9998 26.2687Z" fill="#333333"/>
</svg>
