<svg width="93" height="100" viewBox="0 0 93 100" fill="none" xmlns="http://www.w3.org/2000/svg">
<path d="M26.0482 99.9998C25.8395 99.9998 25.6294 99.9747 25.4219 99.9235C24.5336 99.7042 23.8253 99.036 23.554 98.1624L18.8802 83.1039L3.82167 78.4299C2.94791 78.1587 2.2801 77.4503 2.06074 76.5623C1.84121 75.6742 2.10235 74.7362 2.74927 74.0895L35.2637 41.575C35.7535 41.0853 36.4176 40.8101 37.1101 40.8101C37.8027 40.8101 38.467 41.0853 38.9566 41.575L60.4089 63.0274C61.4288 64.0472 61.4288 65.7006 60.4089 66.7204L27.8946 99.2348C27.3992 99.7307 26.7324 99.9998 26.0482 99.9998Z" fill="#3974DC"/>
<path d="M66.969 99.9999C66.2848 99.9999 65.6181 99.7306 65.1226 99.2349L32.6081 66.7206C31.5883 65.7008 31.5883 64.0475 32.6081 63.0276L54.0605 41.5753C54.5502 41.0855 55.2144 40.8103 55.9069 40.8103C56.5994 40.8103 57.2638 41.0855 57.7533 41.5753L90.2678 74.0897C90.9147 74.7365 91.1758 75.6746 90.9563 76.5625C90.737 77.4506 90.069 78.1589 89.1954 78.4302L74.1369 83.1042L69.463 98.1627C69.1918 99.0363 68.4834 99.7043 67.5952 99.9238C67.3879 99.9748 67.1776 99.9999 66.969 99.9999Z" fill="#225DC3"/>
<path d="M69.5165 69.0491C82.2281 56.3375 82.2281 35.7279 69.5165 23.0163C56.8049 10.3047 36.1953 10.3047 23.4837 23.0163C10.7721 35.7279 10.7721 56.3375 23.4837 69.0491C36.1953 81.7607 56.8049 81.7607 69.5165 69.0491Z" fill="#FFF26C"/>
<path fill-rule="evenodd" clip-rule="evenodd" d="M46.5088 13.4766V78.5866C64.4395 78.5866 79.0636 63.9623 79.0636 46.0316C79.0636 28.1009 64.4395 13.4766 46.5088 13.4766Z" fill="#FFE43D"/>
<path d="M46.5087 81.198C27.1179 81.198 11.3423 65.4224 11.3423 46.0316C11.3423 26.6408 27.1179 10.8652 46.5087 10.8652C65.8995 10.8652 81.6751 26.6408 81.6751 46.0316C81.6751 65.4224 65.8995 81.198 46.5087 81.198ZM46.5087 16.088C29.9977 16.088 16.565 29.5207 16.565 46.0316C16.565 62.5426 29.9977 75.9753 46.5087 75.9753C63.0197 75.9753 76.4523 62.5426 76.4523 46.0316C76.4523 29.5207 63.0197 16.088 46.5087 16.088Z" fill="#FFCD33"/>
<path d="M46.5086 71.1009C32.6854 71.1009 21.4395 59.8549 21.4395 46.0318C21.4395 32.2086 32.6854 20.9626 46.5086 20.9626C60.3317 20.9626 71.5777 32.2086 71.5777 46.0318C71.5777 59.8549 60.3319 71.1009 46.5086 71.1009Z" fill="#FFCD33"/>
<path d="M46.5088 10.8652V16.088C63.0198 16.088 76.4523 29.5207 76.4523 46.0316C76.4523 62.5426 63.0196 75.9753 46.5088 75.9753V81.198C65.8996 81.198 81.675 65.4224 81.675 46.0316C81.675 26.6408 65.8996 10.8652 46.5088 10.8652Z" fill="#FABC00"/>
<path d="M46.5088 20.9626V71.1009C60.332 71.1009 71.5777 59.8549 71.5777 46.0318C71.5777 32.2086 60.332 20.9628 46.5088 20.9626Z" fill="#FABC00"/>
<path d="M53.9328 59.3055C53.6256 59.3055 53.3169 59.2514 53.0209 59.141L46.5089 56.7135L39.997 59.141C39.177 59.4467 38.2584 59.3214 37.55 58.8068C36.8418 58.2923 36.4384 57.4572 36.4759 56.5828L36.7723 49.6395L32.4514 44.1964C31.9072 43.5108 31.7427 42.5982 32.013 41.7659C32.2834 40.9335 32.9529 40.2918 33.7962 40.0572L40.4913 38.1934L44.3326 32.4019C44.8164 31.6724 45.6336 31.2339 46.5087 31.2339C47.3839 31.2339 48.2011 31.6724 48.6849 32.4019L52.5262 38.1934L59.2212 40.0572C60.0645 40.292 60.7339 40.9335 61.0044 41.7659C61.275 42.5982 61.1103 43.511 60.5661 44.1964L56.2451 49.6393L56.5416 56.5826C56.579 57.4571 56.1757 58.2922 55.4674 58.8066C55.0153 59.1356 54.4767 59.3055 53.9328 59.3055Z" fill="#FFF26C"/>
<path d="M61.0045 41.7659C60.7339 40.9334 60.0646 40.2918 59.2213 40.0572L52.5262 38.1934L48.6848 32.4019C48.201 31.6724 47.3839 31.2339 46.5088 31.2339V56.7135L53.0205 59.1409C53.3164 59.2512 53.6253 59.3054 53.9324 59.3054C54.4762 59.3054 55.0149 59.1355 55.4673 58.8066C56.1755 58.2922 56.5789 57.457 56.5415 56.5826L56.245 49.6393L60.5659 44.1964C61.1103 43.511 61.275 42.5982 61.0045 41.7659Z" fill="#FFE43D"/>
</svg>
