<svg id="Layer_1" enable-background="new 0 0 512 512" height="512" viewBox="0 0 512 512" width="512" xmlns="http://www.w3.org/2000/svg"><g><path d="m27.401 355.836 1.286 15.271c41.211 77.283 122.612 129.892 216.312 129.892 99.751 0 185.569-59.619 223.79-145.163z" fill="#425ea5"/><path d="m27.401 355.836 1.286 15.271c38.834 72.826 113.358 123.733 200.229 129.364-52.06-34.982 86.045-53.649.187-82.44-49.412-16.57-52.428-41.964-44.326-62.195z" fill="#2a428c"/><path d="m467.884 357.836c14.193-31.014 22.114-65.498 22.114-101.836 0-135.309-109.69-244.999-244.999-244.999-108.27 0-200.125 70.236-232.518 167.626l15.089 179.209z" fill="#4fabf7"/><path d="m263.777 371.153c9.156 59.919 60.914 105.819 123.392 105.819 68.942 0 124.831-55.889 124.831-124.831 0-43.642-22.401-82.046-56.327-104.361-8.293 3.662-17.889 3.91-26.561.406-73.241-29.609-153.988 24.554-153.988 103.955v.166c.012 8.116-4.431 15.301-11.347 18.846zm41.178-19.012c0-45.333 36.881-82.214 82.214-82.214s82.214 36.881 82.214 82.214-36.881 82.215-82.214 82.215-82.214-36.882-82.214-82.215z" fill="#2a428c"/><path d="m439.542 429.679c.095-2.498-1.498-4.732-3.861-5.55-1.973-.682-3.343-1.645-4.302-2.728-12.777 8.185-27.943 12.954-44.21 12.954-45.333 0-82.214-36.882-82.214-82.215 0-39.001 27.308-71.723 63.801-80.109-.257-1.481-.128-2.952.146-4.221.471-2.184-.342-4.406-2.102-5.781-6.431-5.022-4.312-12.912-2.966-16.334.407-1.034.483-2.155.259-3.236-49.11 10.57-88.969 53.896-88.969 109.681v.167c.012 8.116-4.43 15.301-11.347 18.846 9.156 59.919 60.914 105.819 123.392 105.819 27.326 0 52.595-8.787 73.153-23.679-18.984-2.318-21.063-16.212-20.78-23.614z" fill="#1c2e7a"/><g><path d="m387.169 441.921c-49.504 0-89.78-40.275-89.78-89.78 0-49.504 40.275-89.779 89.78-89.779s89.78 40.275 89.78 89.779c0 49.505-40.275 89.78-89.78 89.78zm0-164.428c-41.161 0-74.648 33.487-74.648 74.647 0 41.161 33.487 74.648 74.648 74.648s74.648-33.488 74.648-74.648-33.487-74.647-74.648-74.647z" fill="#e9efff"/></g><path d="m435.681 424.13c-6.688-2.314-6.623-7.78-6.08-10.623-12.059 8.364-26.679 13.282-42.433 13.282-41.161 0-74.648-33.488-74.648-74.649 0-36.653 26.561-67.198 61.442-73.454-.319-.327-.664-.629-1.06-.866-4.515-2.705-4.661-6.948-4.001-10.01.26-1.207.116-2.421-.352-3.502-40.599 8.597-71.161 44.711-71.161 87.832 0 49.505 40.275 89.78 89.78 89.78 18.964 0 36.57-5.916 51.081-15.991-.662-.802-1.534-1.442-2.568-1.799z" fill="#bec8f7"/><path d="m159.034 198.758v103.573h-71.729v-54.144h-50.971v-15.831l75.487-33.598z" fill="#425ea5"/><path d="m355.2 175.174c10.36-1.965 21.047-2.994 31.97-2.994 14.206 0 28.21 1.754 41.756 5.155 5.565 1.397 8.712 7.287 6.734 12.673l-4.398 11.975c-1.696 4.618-6.59 7.169-11.373 6.018-10.602-2.55-21.559-3.859-32.719-3.859-8.386 0-16.598.751-24.578 2.181-4.741.85-9.381-1.91-10.868-6.492l-3.964-12.209c-1.801-5.546 1.711-11.362 7.44-12.448z" fill="#e9efff"/><path d="m391.682 172.249c-1.502-.039-3.005-.07-4.512-.07-10.923 0-21.61 1.029-31.969 2.994-5.729 1.087-9.241 6.903-7.44 12.449l3.963 12.209c1.487 4.582 6.127 7.341 10.868 6.492 7.98-1.431 16.193-2.181 24.578-2.181 1.539 0 3.072.031 4.603.08l-.003-.003c-17.451-17.449-1.366-30.947-.088-31.97z" fill="#d3dcfb"/><path d="m8.443 319.928 20.826-13.053-2.079-1.367c-3.179-2.091-5.076-5.586-5.076-9.348v-47.525c0-.934.132-1.9.392-2.868l.873-3.257.921-19.121h-22.135c-1.419 10.67-2.165 21.553-2.165 32.611 0 22.119 2.948 43.545 8.443 63.928z" fill="#2a428c"/><path d="m56.889 176.98c-18.156 1.527-32.424.967-43.607-.72-6.076 17.66-10.193 36.23-12.085 55.455h1.294c20.948 0 41.349-10.344 58.236-22.738l6.446-4.731c3.883-2.851 6.178-7.38 6.178-12.197 0-8.88-7.614-15.813-16.462-15.069z" fill="#b76c4e"/><path d="m40.281 215.975c.451-1.836-.493-3.695-2.194-4.521-15.9-7.73-10.942-23.99-8.042-30.682.429-.99.419-2.068.057-3.016-6.263-.22-11.848-.745-16.821-1.495-6.076 17.66-10.193 36.23-12.085 55.455h1.294c12.849 0 25.492-3.896 37.245-9.765-.175-2.218.143-4.338.546-5.976z" fill="#a05838"/><g><path d="m124.94 255.752h-34.892c-4.178 0-7.566-3.387-7.566-7.566s3.387-7.566 7.566-7.566h34.892c4.179 0 7.566 3.387 7.566 7.566s-3.387 7.566-7.566 7.566z" fill="#5676b7"/></g><path d="m134.174 216.749c0-7.032 5.753-12.785 12.785-12.785h24.149c7.032 0 12.785 5.753 12.785 12.785v15.271c-11.734 0-36.029 0-49.719 0z" fill="#e9efff"/><path d="m185.856 359.452c9.359-5.059 16.337-14.123 18.423-25.118l25.364-138.109c4.445-2.907 8.233-6.843 10.958-11.617l13.786-24.145 2.54 5.167-31.701 172.614c-5.154 27.165-28.962 46.882-56.611 46.882-1.151 0-2.257-.188-3.296-.526 10.771-3.915 18.818-13.501 20.537-25.148z" fill="#5676b7"/><path d="m115.926 303.779c0-3.685-1.119-7.112-3.031-9.966.469-.066.944-.112 1.432-.112h58.516c5.613 0 10.162 4.55 10.162 10.162v32.488c0 .863-.119 1.696-.322 2.496-4.508-6.505-11.414-11.291-19.618-12.997l-51.245-10.656c2.564-3.105 4.106-7.084 4.106-11.415z" fill="#5676b7"/><path d="m130.704 230.955h56.659c4.654 0 8.427 3.773 8.427 8.427v10.437c0 4.331-1.527 8.524-4.313 11.84-2.061 2.453-3.446 5.402-4.018 8.555l-3.13 17.251c-.767 4.227-4.448 7.301-8.744 7.301-12.02 0-21.17 0-33.104 0-4.296 0-7.978-3.074-8.745-7.301l-3.13-17.251c-.572-3.152-1.957-6.101-4.017-8.555-2.786-3.317-4.313-7.509-4.313-11.84v-10.437c.001-4.654 3.774-8.427 8.428-8.427z" fill="#d3dcfb"/><g><path d="m159.034 302.331c-4.178 0-7.566-3.387-7.566-7.566v-63.811c0-4.179 3.387-7.566 7.566-7.566 4.178 0 7.566 3.387 7.566 7.566v63.811c0 4.18-3.388 7.566-7.566 7.566z" fill="#bec8f7"/></g><g><path d="m419.314 218.675.423-13.519c.131-4.177-3.149-7.668-7.326-7.798-4.176-.131-7.668 3.149-7.799 7.325l-.354 11.314c5.086.618 10.109 1.513 15.056 2.678z" fill="#bec8f7"/></g><g><path d="m376.525 215.349.361-11.533c.131-4.177-3.149-7.668-7.326-7.799s-7.668 3.148-7.799 7.325l-.439 14.018c4.981-.938 10.052-1.62 15.203-2.011z" fill="#bec8f7"/></g><path d="m1.276 230.852c-.803 7.875-1.222 15.863-1.261 23.941l117.509-52.959h-34.32c-3.846 0-7.547-1.097-10.718-3.075z" fill="#5676b7"/><path d="m45.522 231.417c-6.789-4.128-6.257-11.31-5.241-15.442.22-.897.104-1.797-.268-2.582l-38.737 17.459c-.803 7.875-1.222 15.863-1.261 23.941l47.24-21.29c-.316-.842-.911-1.586-1.733-2.086z" fill="#425ea5"/><path d="m27.818 305.899-19.811 12.417c5.081 19.377 12.471 37.818 21.866 55.008l24.081 4.365c-9.693-6.975-16.023-18.343-16.023-31.169 0-16.048 10.144-30.546 25.243-36.076l3.168-1.16v-1.938h-33.041c-1.992-.001-3.861-.53-5.483-1.447z" fill="#425ea5"/><path d="m33.302 235.85h47.525c7.032 0 12.785 5.753 12.785 12.785v37.747c-7.797 1.955-13.596 9.002-13.596 17.398 0 1.796.272 3.528.765 5.165h-47.479c-7.032 0-12.785-5.753-12.785-12.785v-47.525c0-7.032 5.753-12.785 12.785-12.785z" fill="#bec8f7"/><path d="m53.517 296.159v-47.525c0-7.032 5.753-12.785 12.785-12.785h-33c-7.032 0-12.785 5.753-12.785 12.785v47.525c0 7.032 5.753 12.785 12.785 12.785h33c-7.032 0-12.785-5.753-12.785-12.785z" fill="#9fb0ed"/><path d="m279.489 82.53c5.306-3.44 12.356-2.299 16.306 2.638 2.336 2.92 5.872 4.619 9.611 4.619h8.645v69.607h-21.818l-28.216-57.41c-1.223-2.489-2.938-4.568-4.955-6.211z" fill="#ffb332"/><path d="m314.051 124.332c-1.45-.564-3.093-.587-4.599.025-15.187 6.172-28.805.316-36.852-4.91l19.634 39.948h21.817z" fill="#ff9100"/><path d="m332.696 96.243c0-1.515-.526-2.905-1.399-4.006h12.425c10.117 0 15.538 11.902 8.898 19.535l-19.924 22.901z" fill="#d3dcfb"/><path d="m327.306 89.788c3.565 0 6.456 2.89 6.456 6.456v56.696c0 3.565-2.89 6.456-6.456 6.456h-13.254v-69.608z" fill="#e9efff"/><path d="m316.486 126.034c-.677-.775-1.518-1.345-2.435-1.702v35.063h13.254c3.565 0 6.456-2.89 6.456-6.456v-25.267c-9.127 4.752-14.505 1.534-17.275-1.638z" fill="#bec8f7"/><path d="m383.036 360.758h13.851" style="fill:none;stroke:#000;stroke-width:15;stroke-linecap:round;stroke-linejoin:round;stroke-miterlimit:10"/><path d="m387.169 391.739c-21.834 0-39.598-17.764-39.598-39.598s17.763-39.597 39.598-39.597c21.834 0 39.598 17.763 39.598 39.597s-17.764 39.598-39.598 39.598z" fill="#d3dcfb"/><g><path d="m381.97 355.836c-.867 0-1.75-.151-2.612-.467-3.922-1.443-5.931-5.793-4.488-9.713l37.462-101.805c1.443-3.922 5.792-5.928 9.713-4.488 3.922 1.443 5.931 5.792 4.488 9.713l-37.462 101.805c-1.125 3.06-4.02 4.955-7.101 4.955z" fill="#ffdd40"/></g><g><path d="m357.014 359.873h-81.891c-4.179 0-7.566-3.387-7.566-7.566s3.387-7.566 7.566-7.566h81.891c4.178 0 7.566 3.387 7.566 7.566s-3.387 7.566-7.566 7.566z" fill="#ff9100"/></g><path d="m387.169 212.927c27.472 0 53.737 7.874 76.444 22.845 3.097 2.042 3.31 6.51.409 8.821-10.043 8.002-23.604 9.885-35.509 5.074-13.005-5.257-26.965-7.973-41.344-7.973-60.901 0-110.448 49.546-110.448 110.447v.167c.015 9.935-6.29 18.768-15.771 21.726-5.735 1.789-11.723-2.074-12.313-8.053-.453-4.593-.682-9.219-.682-13.84.001-76.763 62.451-139.214 139.214-139.214z" fill="#ffc839"/><path d="m247.956 352.141c0 4.621.228 9.247.682 13.841.59 5.978 6.578 9.841 12.313 8.052 9.481-2.958 15.786-11.791 15.771-21.726 0-.056 0-.111 0-.167 0-53.163 37.757-97.67 87.864-108.122-.002-.001-.003-.002-.003-.002-21.11-8.675-7.649-27.679-7.571-27.789-62.312 13.816-109.056 69.503-109.056 135.913z" fill="#ffb332"/><path d="m199.124 119.968c12.983 1.412 26.768 4.564 41.297 9.874l15.112 30.747-14.931 26.15c-5.903 10.338-16.749 16.817-28.596 17.189 8.992-9.673 14.5-22.628 14.5-36.877-.001-20.171-11.032-37.755-27.382-47.083z" fill="#ffb332"/><path d="m140.727 189.711c.102-13.045-10.561-23.117-23.176-23.117-18.07 0-37.861 8.102-53.552 23.529-2.352-7.028-.726-14.979 4.65-20.508 19.923-20.491 66.204-57.763 133.166-49.325 16.042 9.408 26.82 26.821 26.82 46.761 0 14.175-5.449 27.074-14.36 36.73-1.106.109-2.219.183-3.344.183h-77.973c4.642-3.091 7.724-8.326 7.769-14.253z" fill="#ffc839"/><path d="m166.6 159.395c-32.817-9.654-15.132-37.007-15.132-37.007-40.033 8.668-68.364 32.362-82.818 47.228-5.376 5.53-7.002 13.48-4.65 20.508 15.691-15.428 35.481-23.529 53.552-23.529 12.614 0 23.278 10.072 23.176 23.117-.046 5.927-3.127 11.162-7.768 14.253h32.682c2.848-15.283 27.572-36.741.958-44.57z" fill="#ffb332"/><path d="m66.52 195.196c-1.34-1.947-2.294-4.06-2.88-6.242 9.454-9.16 27.764-22.813 53.342-23.418 13.372-.316 24.92 10.282 24.811 24.184-.044 5.786-2.792 10.909-7.023 14.245h-51.566c-6.665-.001-12.904-3.28-16.684-8.769z" fill="#ffdd40"/><path d="m236.069 60.75c13.172 0 23.851 10.678 23.851 23.851 0 3.806-.896 7.401-2.481 10.593-4.671-2.489-10.427-2.797-15.541-.284l.001-.001c-5.366 2.638-8.72 7.742-9.391 13.276-11.482-1.72-20.288-11.623-20.288-23.584-.002-13.173 10.676-23.851 23.849-23.851z" fill="#e9efff"/><path d="m174.388 84.6c0-5.391-2.431-10.209-6.249-13.436h50.335c7.421 0 13.436 6.015 13.436 13.436s-6.015 13.436-13.436 13.436h-50.335c3.819-3.227 6.249-8.045 6.249-13.436z" fill="#5676b7"/><path d="m168.139 98.036h38.003c-5.477-2.013-9.392-7.26-9.392-13.436s3.915-11.423 9.392-13.436h-38.004c3.819 3.227 6.249 8.045 6.249 13.436.001 5.391-2.429 10.209-6.248 13.436z" fill="#425ea5"/><ellipse cx="158.928" cy="84.6" fill="#6b8fc9" rx="17.591" ry="17.591" transform="matrix(.987 -.16 .16 .987 -11.499 26.55)"/><path d="m80.28 306.737c1.417 8.495 8.799 14.996 17.69 14.996 6.386 0 11.989-3.361 15.173-8.396l49.923 10.381c14.717 3.06 25.266 16.029 25.266 31.061 0 17.522-14.204 31.725-31.725 31.725h-80.289c-22.083 0-39.985-17.902-39.985-39.985.001-23.926 20.749-42.141 43.947-39.782z" fill="#d3dcfb"/><g><path d="m88.32 352.143c0-12.822 5.962-23.999 15.063-31.253-1.709.544-3.525.844-5.413.844-8.891 0-16.272-6.502-17.69-14.997-23.199-2.359-43.947 15.855-43.947 39.783 0 22.083 17.902 39.985 39.985 39.985h31.541c-11.699-6.976-19.539-19.751-19.539-34.362z" fill="#bec8f7"/></g><ellipse cx="97.971" cy="303.779" fill="#e9efff" rx="19.553" ry="19.553" transform="matrix(.987 -.16 .16 .987 -47.395 19.616)"/><circle cx="97.971" cy="303.779" fill="#bec8f7" r="9.053"/><ellipse cx="387.888" cy="352.141" fill="#bec8f7" rx="19.576" ry="19.576" transform="matrix(.924 -.383 .383 .924 -105.232 175.244)"/><path d="m339.056 258.781 46.624 94.865c3.628 7.381.574 16.337-6.807 19.966-7.383 3.626-16.34.572-19.966-6.809l-46.624-94.864z" fill="#e9efff"/><path d="m378.157 372.054-41.207-83.844c-2.992-6.087-.482-13.446 5.604-16.438l2.325-1.143-5.823-11.849-26.773 13.158 46.624 94.865c3.625 7.381 12.582 10.435 19.965 6.809.046-.022.086-.051.132-.073-.305-.475-.592-.967-.847-1.485z" fill="#bec8f7"/><path d="m241.192 93.474c9.238-4.539 20.415-.732 24.956 8.51l74.155 150.882c1.625 3.306.262 7.304-3.044 8.929l-21.493 10.563c-3.306 1.625-7.304.262-8.929-3.044l-74.156-150.882c-4.54-9.242-.73-20.415 8.511-24.958z" fill="#ffdd40"/><path d="m259.088 129.063c-4.487-9.131-.811-20.136 8.191-24.78l-1.13-2.299c-4.542-9.242-15.719-13.049-24.957-8.51-9.241 4.543-13.051 15.716-8.51 24.957l74.155 150.882c1.625 3.306 5.622 4.669 8.929 3.044l11.073-5.442z" fill="#ffc839"/></g></svg>