<svg id="Capa_1" enable-background="new 0 0 512 512" height="512" viewBox="0 0 512 512" width="512" xmlns="http://www.w3.org/2000/svg"><g><path d="m102.065 15h314.61v421.75h-314.61z" fill="#e34d39"/><path d="m259.375 15h157.3v421.75h-157.3z" fill="#c4351b"/><path d="m84.425 0h349.89v30h-349.89z" fill="#463d67"/><path d="m259.375 0h174.94v30h-174.94z" fill="#342845"/><path d="m29.445 135.5h256v301.25h-256z" fill="#514c81"/><path d="m157.445 135.5h128v301.25h-128z" fill="#463d67"/><path d="m82.198 241h30v30h-30z" fill="#52b6ed"/><path d="m82.198 180.75h30v30h-30z" fill="#52b6ed"/><path d="m202.698 241h30v30h-30z" fill="#4490d6"/><path d="m202.698 180.75h30v30h-30z" fill="#4490d6"/><path d="m334.747 120.5h30v30h-30z" fill="#f0962f"/><path d="m334.747 180.75h30v30h-30z" fill="#f0962f"/><path d="m334.747 241h30v30h-30z" fill="#f0962f"/><g fill="#52b6ed"><path d="m142.445 241h30v30h-30z"/><path d="m142.445 180.75h30v30h-30z"/><path d="m82.195 308.75h150.5v128h-150.5z"/></g><path d="m157.445 180.75h15v30h-15z" fill="#4490d6"/><path d="m157.445 241h15v30h-15z" fill="#4490d6"/><path d="m157.445 308.75h75.25v128h-75.25z" fill="#4490d6"/><path d="m9.935 120.5h295.03v30h-295.03z" fill="#463d67"/><path d="m9.935 421.75h422.74v30h-422.74z" fill="#463d67"/><path d="m157.445 120.5h147.52v30h-147.52z" fill="#342845"/><path d="m157.445 421.75h275.23v30h-275.23z" fill="#342845"/><path d="m491.935 350.12v49.35h-30v-49.35c0-24.95-20.3-45.24-45.25-45.24s-45.25 20.29-45.25 45.24v49.35h-30v-49.35c0-41.49 33.76-75.24 75.25-75.24 41.5 0 75.25 33.75 75.25 75.24z" fill="#f3f5f9"/><path d="m491.935 350.12v49.35h-30v-49.35c0-24.95-20.3-45.24-45.25-45.24v-30c41.5 0 75.25 33.75 75.25 75.24z" fill="#d8e0f1"/><path d="m331.305 384h170.76v128h-170.76z" fill="#ffbf2d"/><path d="m416.685 384h85.38v128h-85.38z" fill="#f0962f"/><path d="m401.685 433h30v30h-30z" fill="#e34d39"/><path d="m416.685 433h15v30h-15z" fill="#c4351b"/><path d="m334.747 60.25h30v30h-30z" fill="#f0962f"/><path d="m274.497 60.25h30v30h-30z" fill="#f0962f"/><path d="m214.247 60.25h30v30h-30z" fill="#ffbf2d"/><path d="m153.997 60.25h30v30h-30z" fill="#ffbf2d"/></g></svg>