<svg width="101" height="100" viewBox="0 0 101 100" fill="none" xmlns="http://www.w3.org/2000/svg">
<path d="M7.41956 47.6634L88.5864 39.9281C92.3141 39.5733 95.6237 42.3069 95.9784 46.0338L99.6771 84.8411C100.033 88.568 97.2983 91.8776 93.5714 92.2332L12.4046 99.9685C8.67687 100.324 5.36727 97.5905 5.01175 93.8628L1.31381 55.0562C0.958288 51.3286 3.69187 48.019 7.41956 47.6634Z" fill="#05C279"/>
<path d="M19.8485 85.5933C17.1287 85.5551 14.537 84.429 12.6533 82.4668C8.08867 77.6695 7.39364 70.3735 10.9703 64.8003C12.6121 62.246 15.3213 60.5699 18.3402 60.241C21.3683 59.9954 24.3452 61.1291 26.4418 63.3279C31.0072 68.1237 31.7022 75.4196 28.1248 80.992C26.483 83.5486 23.7723 85.2248 20.7518 85.5513C20.452 85.5818 20.1483 85.5933 19.8485 85.5933ZM19.2313 63.5918C19.0413 63.5918 18.8521 63.601 18.6621 63.6193C16.6495 63.8596 14.8528 64.9956 13.7725 66.7107C11.1114 70.9335 11.634 76.4205 15.0451 80.0651C16.4306 81.5467 18.4111 82.3234 20.4352 82.1784C22.4478 81.9381 24.2453 80.8021 25.3264 79.087C26.6562 77.0484 27.236 74.6109 26.9651 72.1924C26.7744 69.7655 25.7444 67.4813 24.0538 65.7311C22.7965 64.4028 21.06 63.633 19.2313 63.5918Z" fill="white"/>
<path d="M36.9758 83.9989C36.1022 84.0034 35.3683 83.3427 35.2806 82.4737L33.1993 60.5295C33.1207 59.9161 33.3832 59.3081 33.8836 58.9442C34.3834 58.5802 35.0425 58.5177 35.6018 58.7809C36.1618 59.0441 36.5341 59.5919 36.5722 60.2091L38.6634 82.1426C38.7069 82.5905 38.5703 83.0368 38.2842 83.3832C37.9981 83.7303 37.5861 83.9493 37.1383 83.992C37.0826 83.9973 37.0284 83.9989 36.9758 83.9989Z" fill="white"/>
<path d="M36.5363 72.204C36.177 72.204 35.9214 72.204 35.7978 72.1925C34.8625 72.1582 34.1323 71.3731 34.1651 70.4378C34.1766 69.9869 34.3696 69.5589 34.6999 69.2522C35.0303 68.9447 35.4705 68.783 35.9214 68.8043C37.9554 68.8821 43.7179 68.5838 45.7725 66.3988C46.2653 65.8479 46.5057 65.1163 46.4347 64.3808C46.3638 63.6453 45.9884 62.9724 45.3994 62.5261C42.9702 60.7736 37.1314 61.5991 35.276 62.018C34.3635 62.2278 33.4533 61.6586 33.2435 60.7462C33.0329 59.8344 33.6021 58.9243 34.5146 58.7145C35.398 58.5107 43.2754 56.8071 47.3823 59.7688C48.7624 60.7881 49.6429 62.3468 49.8046 64.055C49.9664 65.7625 49.3934 67.4585 48.2299 68.7196C45.2285 71.9041 38.8076 72.204 36.5363 72.204Z" fill="white"/>
<path d="M57.001 82.0899C56.1282 82.0892 55.3989 81.4254 55.3157 80.5564L53.2245 58.6214C53.136 57.6898 53.8188 56.8628 54.7496 56.7735L69.314 55.3858C70.2417 55.3041 71.0619 55.9862 71.1496 56.9139C71.2381 57.8409 70.5614 58.6656 69.6344 58.7602L56.7531 59.987L58.5208 78.5476L71.4021 77.3208C72.0071 77.259 72.5992 77.5268 72.9532 78.0212C73.3072 78.5163 73.3682 79.1626 73.1142 79.7157C72.8593 80.268 72.3283 80.6419 71.7226 80.6953L57.1597 82.0838C57.1071 82.0884 57.0529 82.0899 57.001 82.0899Z" fill="white"/>
<path d="M55.8751 70.2805C54.939 70.324 54.1447 69.6007 54.1005 68.6654C54.057 67.7293 54.7803 66.9343 55.7164 66.8908L66.6402 65.8501C67.5679 65.7685 68.3873 66.4506 68.4758 67.3783C68.5635 68.3053 67.8868 69.13 66.9598 69.2246L56.0384 70.2653C55.9819 70.2767 55.9277 70.2805 55.8751 70.2805Z" fill="white"/>
<path d="M78.8475 80.0087C77.9747 80.0079 77.2454 79.3426 77.163 78.4736L75.0718 56.5393C74.9985 55.7764 75.4464 55.0593 76.1651 54.7907C76.883 54.5214 77.6917 54.7686 78.138 55.3919L89.3088 70.9969L87.8158 55.3263C87.738 54.7129 88.0004 54.1064 88.5001 53.7424C88.9991 53.3793 89.6575 53.316 90.2167 53.5784C90.7767 53.8409 91.149 54.3871 91.1887 55.0043L93.2784 76.9379C93.3501 77.7 92.9023 78.4157 92.1851 78.6842C91.4679 78.9528 90.66 78.7071 90.2137 78.0853L79.0428 62.4803L80.5359 78.1532C80.6244 79.084 79.9416 79.911 79.0108 80.0003C78.9543 80.0003 78.9086 80.0087 78.8475 80.0087Z" fill="white"/>
<path d="M51.6385 3.54383C51.4219 3.54383 51.2067 3.50263 51.0061 3.42176C50.8298 3.39811 50.6521 3.38819 50.4735 3.39124C49.574 3.52934 48.7264 2.93195 48.5532 2.03779C48.38 1.14439 48.9438 0.273873 49.8296 0.0655905C50.028 0.0190511 50.2309 -0.00231117 50.4346 0.00150354C50.8901 -0.00841469 51.3456 0.035073 51.7904 0.131966C51.9536 0.167824 52.1146 0.21589 52.2702 0.276162C53.024 0.578286 53.4574 1.37327 53.3033 2.17054C53.1484 2.96781 52.4503 3.54383 51.6385 3.54383Z" fill="black"/>
<path d="M89.4171 47.4582C88.9174 47.4589 88.4436 47.24 88.1209 46.8585L54.0194 6.51999C53.7615 6.21329 53.6204 5.82572 53.6211 5.42518C53.6173 4.66911 54.114 4.00155 54.8395 3.78945C55.5651 3.57736 56.344 3.87109 56.7484 4.50966L90.7118 44.6788C91.1322 45.1831 91.223 45.8842 90.946 46.4793C90.6691 47.0744 90.0732 47.4559 89.4171 47.4582Z" fill="#CB9080"/>
<path d="M9.75709 55.9329C9.1147 55.9329 8.528 55.5705 8.24114 54.996C7.95352 54.4215 8.01608 53.7349 8.40136 53.2214L44.0074 5.42527C44.5689 4.67607 45.6317 4.52425 46.3801 5.08577C47.1293 5.64805 47.2811 6.71005 46.7196 7.45925L11.1128 55.2554C10.7924 55.6819 10.2904 55.9329 9.75709 55.9329Z" fill="#CB9080"/>
<path d="M50.4343 13.5605C46.6898 13.5605 43.6548 10.5256 43.6548 6.78107C43.6548 3.03656 46.6898 0.00158691 50.4343 0.00158691C54.1788 0.00158691 57.2137 3.03656 57.2137 6.78107C57.2137 8.57932 56.4996 10.3036 55.2286 11.5746C53.9568 12.8464 52.2325 13.5605 50.4343 13.5605Z" fill="#A5A5A4"/>
</svg>
