<svg width="54" height="54" viewBox="0 0 54 54" fill="none" xmlns="http://www.w3.org/2000/svg">
<path d="M41.7934 43.9875C38.2309 43.9875 34.5559 42.9937 30.7684 41.0062C26.9809 39.0187 23.5309 36.4781 20.4184 33.3844C17.3059 30.2906 14.7559 26.8594 12.7684 23.0906C10.7809 19.3219 9.78711 15.6562 9.78711 12.0937C9.78711 11.4187 10.0215 10.8469 10.4902 10.3781C10.959 9.90936 11.5309 9.67499 12.2059 9.67499H16.3121C16.9871 9.67499 17.559 9.87186 18.0277 10.2656C18.4965 10.6594 18.8059 11.1937 18.9559 11.8687L20.0246 16.2562C20.1371 16.8562 20.1184 17.4 19.9684 17.8875C19.8184 18.375 19.5559 18.7687 19.1809 19.0687L14.3996 23.4562C16.6496 27.2062 19.1059 30.3937 21.7684 33.0187C24.4309 35.6437 27.5809 37.95 31.2184 39.9375L35.8871 35.0437C36.2621 34.6312 36.6652 34.35 37.0965 34.2C37.5277 34.05 38.0059 34.0312 38.5309 34.1437L42.0184 34.9312C42.6934 35.0437 43.2277 35.3437 43.6215 35.8312C44.0152 36.3187 44.2121 36.9187 44.2121 37.6312V41.5687C44.2121 42.2437 43.9777 42.8156 43.509 43.2844C43.0402 43.7531 42.4684 43.9875 41.7934 43.9875Z" fill="#333333"/>
</svg>
