<svg id="Capa_1" enable-background="new 0 0 501 501" height="512" viewBox="0 0 501 501" width="512" xmlns="http://www.w3.org/2000/svg"><g><path d="m53.211 401.292c-29.987-40.65-47.711-90.901-47.711-145.292 0-135.31 109.69-245 245-245s245 109.69 245 245c0 54.391-17.724 104.642-47.711 145.292z" fill="#81ade2"/><path d="m441.06 410c-44.915 55.509-113.593 91-190.56 91s-145.644-35.491-190.56-91z" fill="#783d3e"/><path d="m431.5 410h-362c-8.284 0-15-6.716-15-15v-250c0-8.284 6.716-15 15-15h362c8.284 0 15 6.716 15 15v250c0 8.284-6.716 15-15 15z" fill="#017259"/><path d="m431.5 410h-332c-8.284 0-15-6.716-15-15v-211.379c0-8.284 6.716-15 15-15h332c8.284 0 15 6.716 15 15v211.379c0 8.284-6.716 15-15 15z" fill="#06995f"/><path d="m336.5 145v260c0 8.284-6.716 15-15 15h-142c-8.284 0-15-6.716-15-15v-260c0-8.284 6.716-15 15-15h142c8.284 0 15 6.716 15 15z" fill="#78c3ae"/><path d="m179.5 341.667c-8.284 0-15-4.902-15-10.948v-189.77c0-6.046 6.716-10.948 15-10.948s15 4.902 15 10.948v189.77c0 6.046-6.716 10.948-15 10.948zm157-10.949v-189.77c0-6.046-6.716-10.948-15-10.948s-15 4.902-15 10.948v189.77c0 6.047 6.716 10.948 15 10.948s15-4.901 15-10.948z" fill="#94cfbe"/><path d="m291.5 420h-82c-8.284 0-15-6.716-15-15v-260c0-8.284 6.716-15 15-15h82c8.284 0 15 6.716 15 15v260c0 8.284-6.716 15-15 15z" fill="#017259"/><path d="m271.5 360h-42c-8.284 0-15-6.716-15-15v-90c0-8.284 6.716-15 15-15h42c8.284 0 15 6.716 15 15v90c0 8.284-6.716 15-15 15z" fill="#fc7117"/><path d="m271.5 360h-27.25c-8.284 0-15-6.716-15-15v-90c0-8.284 6.716-15 15-15h27.25c8.284 0 15 6.716 15 15v90c0 8.284-6.716 15-15 15z" fill="#fc9302"/><path d="m450.5 150h-400c-8.284 0-15-6.716-15-15v-50c0-8.284 6.716-15 15-15h400c8.284 0 15 6.716 15 15v50c0 8.284-6.716 15-15 15z" fill="#059b7e"/><path d="m450.5 150h-361c-8.284 0-15-6.716-15-15v-50c0-8.284 6.716-15 15-15h361c8.284 0 15 6.716 15 15v50c0 8.284-6.716 15-15 15z" fill="#08b772"/><path d="m50.5 390h400c1.625 0 3.19.259 4.656.737-6.813 10.327-14.386 20.108-22.64 29.263h-364.032c-8.254-9.155-15.827-18.936-22.64-29.263 1.466-.478 3.031-.737 4.656-.737z" fill="#2cac8d"/><path d="m455.156 390.737c-6.813 10.327-14.386 20.108-22.64 29.263h-343.016c-8.284 0-15-6.716-15-15 0-8.284 6.716-15 15-15h361c1.625 0 3.19.259 4.656.737z" fill="#57b79d"/><path d="m351.5 440h-202c-8.284 0-15-6.716-15-15 0-8.284 6.716-15 15-15h202c8.284 0 15 6.716 15 15 0 8.284-6.716 15-15 15z" fill="#78c3ae"/><path d="m351.5 440h-159.667c-8.284 0-15-6.716-15-15 0-8.284 6.716-15 15-15h159.667c8.284 0 15 6.716 15 15 0 8.284-6.716 15-15 15z" fill="#94cfbe"/><path d="m258 285v30h38.5v15h-38.5v40h-15v-40h-38.5v-15h38.5v-30h-38.5v-15h38.5v-40h15v40h38.5v15z" fill="#017259"/><path d="m411.5 350h-42c-8.284 0-15-6.716-15-15v-120c0-8.284 6.716-15 15-15h42c8.284 0 15 6.716 15 15v120c0 8.284-6.716 15-15 15zm-282 0h-42c-8.284 0-15-6.716-15-15v-120c0-8.284 6.716-15 15-15h42c8.284 0 15 6.716 15 15v120c0 8.284-6.716 15-15 15z" fill="#f7e6b0"/><path d="m399.5 335h-18c-5.523 0-10-4.477-10-10v-100c0-5.523 4.477-10 10-10h18c5.523 0 10 4.477 10 10v100c0 5.523-4.477 10-10 10zm-282 0h-18c-5.523 0-10-4.477-10-10v-100c0-5.523 4.477-10 10-10h18c5.523 0 10 4.477 10 10v100c0 5.523-4.477 10-10 10z" fill="#fc7117"/><path d="m117.5 335h-2c-5.523 0-10-4.477-10-10v-100c0-5.523 4.477-10 10-10h2c5.523 0 10 4.477 10 10v100c0 5.523-4.477 10-10 10zm282 0h-2c-5.523 0-10-4.477-10-10v-100c0-5.523 4.477-10 10-10h2c5.523 0 10 4.477 10 10v100c0 5.523-4.477 10-10 10z" fill="#fc9302"/><path d="m74.5 290h62v15h-62zm0-30h62v-15h-62zm285 45h62v-15h-62zm0-60v15h62v-15z" fill="#f7e6b0"/><path d="m250.5 203c-51.363 0-93-41.637-93-93v-97h186v97c0 51.363-41.637 93-93 93z" fill="#783d3e"/><path d="m217.333 110v-97h126.167v97c0 40.896-26.398 75.627-63.083 88.083-36.686-12.456-63.084-47.187-63.084-88.083z" fill="#8f4a4b"/><path d="m250.5 216c-58.449 0-106-47.552-106-106v-97c0-7.18 5.82-13 13-13h186c7.18 0 13 5.82 13 13v97c0 58.448-47.551 106-106 106zm-80-190v84c0 44.112 35.888 80 80 80s80-35.888 80-80v-84z" fill="#b7696a"/><path d="m203.712 13c0-7.18 5.82-13 13-13h126.788c7.18 0 13 5.82 13 13v74c0 7.18-5.82 13-13 13-7.18 0-13-5.82-13-13v-61h-113.788c-7.18 0-13-5.82-13-13z" fill="#c37f80"/><path d="m297.288 55.164c0 12.873-2.349 25.637-6.932 37.666-4.583 12.029-6.932 24.794-6.932 37.666v25.584c0 2.871-2.328 5.199-5.199 5.199h-55.453c-2.871 0-5.199-2.328-5.199-5.199v-25.584c0-12.873-2.349-25.637-6.932-37.666-4.583-12.029-6.932-24.794-6.932-37.666 0-2.645 2.144-4.79 4.79-4.79h83.997c2.648 0 4.792 2.144 4.792 4.79z" fill="#fcb30b"/><path d="m269.327 108.079c1.123-5.179 2.635-10.277 4.529-15.249 4.583-12.029 6.932-24.794 6.932-37.666 0-2.645-2.144-4.79-4.79-4.79h16.5c2.629 0 4.789 2.122 4.79 4.751.005 12.886-2.344 25.664-6.932 37.705-2.287 6.003-4.017 12.189-5.177 18.48-.852 4.623-5.572 7.44-10.092 6.147-.053-.015-.106-.03-.159-.046-4.018-1.155-6.487-5.245-5.601-9.332z" fill="#f1ca50"/><path d="m277.865 80.321c-4.525 12.079-7.028 24.821-7.028 37.719v5.163c0 11.209-9.087 20.296-20.296 20.296-11.209 0-20.296-9.087-20.296-20.296v-5.163c0-12.899-2.503-25.641-7.028-37.719-3.033-8.093 57.68-8.093 54.648 0z" fill="#ee4424"/><path d="m277.825 80.321c-4.525 12.079-7.028 24.821-7.028 37.719v5.164c0 8.56-5.299 15.882-12.796 18.865-7.497-2.983-12.796-10.305-12.796-18.865v-5.164c0-12.899-2.503-25.641-7.028-37.719-1.25-3.337 8.337-5.297 19.825-5.883 11.486.585 21.073 2.546 19.823 5.883z" fill="#fc5426"/><path d="m284.099 52.745c-.236.881-1.145 5.611-1.322 7.169-.809 7.12-2.509 14.103-5.081 20.855-.323.848-.635 1.7-.936 2.554h-52.439c-.301-.854-.613-1.706-.936-2.554-2.315-6.078-3.923-12.343-4.811-18.727-.271-1.946-1.205-8.31-1.236-9.458-.028-1.049.093-2.12.378-3.185 1.592-5.94 7.697-9.465 13.637-7.873.663.178 1.297.412 1.896.696 2.424-4.356 7.576-6.682 12.609-5.333 4.119 1.104 7.076 4.378 7.972 8.262 2.666-2.106 6.258-2.97 9.792-2.023.236.063.468.135.697.212 2.628-3.635 7.317-5.461 11.908-4.231 5.938 1.591 9.463 7.696 7.872 13.636z" fill="#f7e6b0"/><path d="m277.696 80.769c-.323.848-.635 1.7-.936 2.554h-37.757c-.38-1.079-.774-2.155-1.182-3.227-2.925-7.678-4.956-15.592-6.078-23.656-.342-2.458-1.523-10.498-1.562-11.948-.028-1.044.061-2.106.277-3.167.298.054.597.121.895.201.663.178 1.297.412 1.896.696 2.424-4.356 7.576-6.682 12.609-5.333 4.119 1.104 7.076 4.378 7.972 8.262 2.666-2.106 6.258-2.97 9.792-2.023.236.063.468.135.697.212 2.628-3.635 7.317-5.461 11.908-4.231 5.94 1.592 9.465 7.697 7.873 13.637-.236.881-1.145 5.611-1.322 7.169-.811 7.12-2.51 14.103-5.082 20.854z" fill="#fff5f5"/></g></svg>