<svg width="101" height="100" viewBox="0 0 101 100" fill="none" xmlns="http://www.w3.org/2000/svg">
<g clip-path="url(#clip0_111_132)">
<path d="M100.356 38.5269C100.012 37.4659 99.0951 36.6931 97.9916 36.5329L66.9913 32.0279L53.1272 3.93672C52.6337 2.93652 51.6153 2.30371 50.5001 2.30371C49.385 2.30371 48.3665 2.93652 47.8729 3.93672L34.0081 32.0277L3.00837 36.5329C1.90505 36.6931 0.987868 37.466 0.643533 38.5265C0.298807 39.5874 0.586307 40.7517 1.38474 41.5298L23.816 63.396L18.5214 94.2713C18.333 95.3707 18.7849 96.4813 19.6871 97.1369C20.5892 97.7922 21.7849 97.8789 22.7724 97.3598L50.4999 82.7821L78.2266 97.3596C78.6553 97.585 79.1233 97.6961 79.5897 97.6961C80.1971 97.6961 80.8018 97.5076 81.3119 97.1369C82.2141 96.4813 82.666 95.3703 82.4776 94.2713L77.1815 63.396L99.615 41.5298C100.414 40.7515 100.701 39.5872 100.356 38.5269Z" fill="#FED42D"/>
<path d="M100.356 38.5269C100.012 37.4659 99.095 36.6931 97.9915 36.5329L66.9912 32.0279L53.1271 3.93672C52.6336 2.93652 51.6152 2.30371 50.5 2.30371V82.7823L78.2267 97.3598C78.6554 97.5852 79.1234 97.6963 79.5898 97.6963C80.1972 97.6963 80.8019 97.5078 81.312 97.1371C82.2142 96.4815 82.6661 95.3705 82.4777 94.2715L77.1814 63.396L99.6149 41.5298C100.414 40.7515 100.701 39.5872 100.356 38.5269Z" fill="#FCBF29"/>
</g>
<defs>
<clipPath id="clip0_111_132">
<rect width="100" height="100" fill="white" transform="translate(0.5)"/>
</clipPath>
</defs>
</svg>
