<svg id="Capa_1" enable-background="new 0 0 512 512" height="512" viewBox="0 0 512 512" width="512" xmlns="http://www.w3.org/2000/svg"><g><path d="m64 191.999h384v298.303h-384z" fill="#c4e2ff"/><path d="m231 426c-9.374 0-17-7.626-17-17v-114c0-9.374 7.626-17 17-17h178c9.374 0 17 7.626 17 17v114c0 9.374-7.626 17-17 17z" fill="#b3dafe"/><path d="m416 74.302h-320v-67.302c0-3.866 3.134-7 7-7h306c3.866 0 7 3.134 7 7z" fill="#ffe177"/><path d="m96 7v67.302h41.208v-74.302h-34.208c-3.866 0-7 3.134-7 7z" fill="#ffd15b"/><g><g><path d="m352 39.727-192-.001c-4.268 0-7.726-3.459-7.726-7.726s3.46-7.726 7.726-7.726l192 .001c4.268 0 7.726 3.46 7.726 7.726s-3.46 7.726-7.726 7.726z" fill="#eaf6ff"/></g></g><path d="m448 106.302h-384v-35.302c0-3.866 3.134-7 7-7h370c3.866 0 7 3.134 7 7z" fill="#c4e2ff"/><path d="m64 71v35.302h30.906v-42.302h-23.906c-3.866 0-7 3.134-7 7z" fill="#b3dafe"/><path d="m64 191.999v298.303h32v-256.578c8.872 6.819 19.97 10.878 32 10.878s23.129-4.059 32-10.879c8.872 6.82 19.971 10.879 32 10.879s23.128-4.059 31.999-10.878c8.872 6.819 19.971 10.878 32 10.878 12.03 0 23.129-4.059 32-10.879 8.872 6.82 19.971 10.879 32 10.879s23.128-4.059 31.999-10.878c8.872 6.819 19.971 10.878 32 10.878s23.129-4.059 32-10.879c8.871 6.82 19.97 10.879 32 10.879v-52.604h-383.998z" fill="#b3dafe"/><path d="m96 160h-64l32-64h54.857z" fill="#ea433f"/><path d="m160 160h-64l22.857-64h54.857z" fill="#eaf6ff"/><g fill="#ea433f"><path d="m224 160h-64l13.714-64h54.857z"/><path d="m352 160h-64l-4.571-64h54.857z"/><path d="m480 160h-64l-22.857-64h54.857z"/></g><path d="m64 223.999c-17.673 0-32-14.327-32-32v-32h64v32c0 17.673-14.327 32-32 32z" fill="#d32f2f"/><path d="m128 223.999c-17.673 0-32-14.327-32-32v-32h64v32c0 17.673-14.327 32-32 32z" fill="#d8ecfe"/><path d="m192 223.999c-17.673 0-32-14.327-32-32v-32h64v32c0 17.673-14.327 32-32 32z" fill="#d32f2f"/><path d="m256 223.999c-17.673 0-32-14.327-32-32v-32h64v32c0 17.673-14.327 32-32 32z" fill="#d8ecfe"/><path d="m320 223.999c-17.673 0-32-14.327-32-32v-32h64v32c0 17.673-14.327 32-32 32z" fill="#d32f2f"/><path d="m384 223.999c-17.673 0-32-14.327-32-32v-32h64v32c0 17.673-14.327 32-32 32z" fill="#d8ecfe"/><path d="m448 223.999c-17.673 0-32-14.327-32-32v-32h64v32c0 17.673-14.327 32-32 32z" fill="#d32f2f"/><path d="m160 160h-64l22.857-64h54.857z" fill="#eaf6ff"/><path d="m288 160h-64l4.571-64h54.858z" fill="#eaf6ff"/><path d="m416 160h-64l-13.714-64h54.857z" fill="#eaf6ff"/><path d="m86 490v-195.001c0-9.374 7.626-17 17-17h82c9.374 0 17 7.626 17 17v195.001z" fill="#b3dafe"/><path d="m192 480h-96v-185.001c0-3.866 3.134-7 7-7h82c3.866 0 7 3.134 7 7z" fill="#528fd8"/><path d="m96 295v185h30.906v-192h-23.906c-3.866 0-7 3.134-7 7z" fill="#0573ce"/><g><g><path d="m160 407.727c-4.268 0-7.726-3.459-7.726-7.726v-16c0-4.268 3.459-7.726 7.726-7.726s7.726 3.459 7.726 7.726v16c.001 4.267-3.458 7.726-7.726 7.726z" fill="#eaf6ff"/></g></g><path d="m416 384.001-14.254 10.302h-160.566l-17.18-10.302v-89.001c0-3.866 3.134-7 7-7h178c3.866 0 7 3.134 7 7z" fill="#eaf6ff"/><path d="m224 295v89l15.453 10.302h15.453v-106.302h-23.906c-3.866 0-7 3.134-7 7z" fill="#d8ecfe"/><path d="m416 384.001h-192v24.999c0 3.866 3.134 7 7 7h178c3.866 0 7-3.134 7-7z" fill="#528fd8"/><path d="m224 384v25c0 3.866 3.134 7 7 7h23.906v-32z" fill="#0573ce"/><path d="m480 512h-448v-16.547c0-8.535 6.918-15.453 15.453-15.453h417.094c8.534 0 15.453 6.918 15.453 15.453z" fill="#ffe177"/><path d="m78.359 480h-30.906c-8.535 0-15.453 6.918-15.453 15.453v16.547h30.906v-16.547c0-8.535 6.918-15.453 15.453-15.453z" fill="#ffd15b"/></g></svg>